<?xml version="1.0" encoding="UTF-8"?>
<svg id="Layer_2" data-name="Layer 2" xmlns="http://www.w3.org/2000/svg" viewBox="0 0 44 44">
  <defs>
    <style>
      .cls-1 {
        fill: #000;
      }

      .cls-1, .cls-2 {
        stroke-width: 0px;
      }

      .cls-2 {
        fill: none;
      }
    </style>
  </defs>
  <g id="completed">
    <g>
      <rect class="cls-2" width="44" height="44"/>
      <path class="cls-1" d="M35.93,21.28v13.54c0,.89-1.95,1.18-6.59,1.18s-6.61-.3-6.61-1.18v-13.26c0-1.84-1.51-2.61-3.61-2.61s-3.62.77-3.62,2.61v13.16c0,.9-1.56,1.28-3.72,1.28s-3.72-.38-3.72-1.28v-13.44c0-2.97,1.11-5.18,3.05-6.74.18-.15.36-.28.54-.39,2.33-1.72,4.67-3.43,7-5.13.03-.03.1-.08.15-.11.05-.05.11-.08.16-.11.07-.05.15-.1.21-.16.69-.41,1.77-.62,2.82-.62s2.13.21,2.82.62c.07.07.15.11.21.16.05.03.11.07.16.11.05.03.11.08.15.11,2.33,1.7,4.67,3.41,7,5.13.18.11.36.25.54.39,1.93,1.56,3.05,3.77,3.05,6.74Z"/>
    </g>
  </g>
</svg>