<?xml version="1.0" encoding="UTF-8"?>
<svg id="Layer_2" data-name="Layer 2" xmlns="http://www.w3.org/2000/svg" viewBox="0 0 400 300">
  <defs>
    <style>
      .cls-1 {
        fill: #000;
      }

      .cls-1, .cls-2, .cls-3 {
        stroke-width: 0px;
      }

      .cls-2 {
        fill: #fff;
      }

      .cls-3 {
        fill: #f47a0c;
      }
    </style>
  </defs>
  <g id="Layer_1-2" data-name="Layer 1">
    <g>
      <rect class="cls-2" width="400" height="300"/>
      <g>
        <g>
          <path class="cls-1" d="M48.4,155c-1.35,2.15-2.71,4.3-4.06,6.45-2.25-1.08-4.5-2.19-6.73-3.33,2.68-4,5.35-8,8.03-12,.78.41,1.55.81,2.33,1.21,1.59-.16,3.03-.79,4.32-1.86,1.29-1.07,2.75-2.75,4.39-5.02,4.27-5.95,8.5-11.92,12.69-17.89,6.83,3.61,13.8,6.86,20.87,9.76-4.55,9.22-9.11,18.45-13.66,27.67,1.44.54,2.88,1.07,4.32,1.58-1.96,4.15-3.91,8.3-5.87,12.45-2.32-.8-4.63-1.63-6.94-2.49,1.11-2.2,2.22-4.4,3.33-6.6-7.77-2.95-15.45-6.26-23.02-9.93ZM62.56,144.01c-1.32,1.93-2.51,3.43-3.58,4.52-1.07,1.09-2.19,1.87-3.38,2.34-.04.06-.07.12-.11.18,4.59,2.18,9.21,4.22,13.88,6.12,3.86-7.26,7.73-14.53,11.59-21.79-3.22-1.4-6.41-2.87-9.58-4.42-2.92,4.36-5.86,8.71-8.81,13.05Z"/>
          <path class="cls-1" d="M94.71,173.11c-4.2-1.18-7.03-3.4-8.38-6.54-1.35-3.15-1.02-6.8.87-10.93,1.86-4.09,4.46-6.92,7.68-8.54,3.23-1.63,6.6-1.84,10.26-.71,3.67,1.13,6.15,3.15,7.54,6.12,1.38,2.98,1.46,6.51.11,10.66-1.37,4.19-3.61,7.2-6.85,8.99-3.23,1.79-7.02,2.14-11.24.95ZM93.2,164.4c.47,1.74,1.67,2.89,3.57,3.43,1.9.54,3.65.24,5.23-.9,1.58-1.13,2.82-2.99,3.75-5.56.92-2.54,1.12-4.66.65-6.38-.48-1.72-1.57-2.83-3.3-3.35-1.75-.53-3.4-.25-4.99.86-1.58,1.11-2.92,2.92-3.98,5.45-1.07,2.56-1.39,4.71-.92,6.45Z"/>
          <path class="cls-1" d="M137.51,159.88c-3.66-.57-7.31-1.22-10.95-1.94-1.88,6.9-3.76,13.81-5.64,20.71-2.47-.44-4.93-.92-7.39-1.43,2.63-8.64,5.27-17.28,7.9-25.92,5.71,1.34,11.45,2.47,17.21,3.39-.38,1.73-.76,3.46-1.14,5.19Z"/>
          <path class="cls-1" d="M150.11,182.78c-4.3-.31-7.51-1.83-9.51-4.48-2.01-2.65-2.53-6.09-1.67-10.25.85-4.12,2.68-7.2,5.39-9.29,2.71-2.1,5.89-2.91,9.66-2.54,3.78.37,6.63,1.77,8.65,4.25,2.02,2.49,2.91,5.73,2.56,9.8-.35,4.11-1.82,7.31-4.52,9.55-2.69,2.25-6.25,3.27-10.57,2.96ZM146.68,175.03c.85,1.51,2.26,2.35,4.2,2.5,1.94.15,3.55-.46,4.81-1.79,1.25-1.34,2.02-3.28,2.32-5.82.3-2.51,0-4.5-.84-6-.85-1.49-2.15-2.32-3.94-2.48-1.8-.17-3.32.4-4.58,1.71-1.26,1.32-2.13,3.23-2.56,5.76-.44,2.56-.25,4.6.6,6.11Z"/>
          <path class="cls-1" d="M169.15,183.07c.55-8.45,1.1-16.89,1.65-25.34,4.21.12,8.43.14,12.64.05,2.59-.06,4.62.42,6.13,1.46,1.51,1.04,2.32,2.52,2.39,4.46.05,1.32-.35,2.51-1.22,3.59-.87,1.07-1.99,1.76-3.35,2.04,0,.06,0,.12,0,.18,1.77.12,3.22.67,4.37,1.66,1.14.99,1.76,2.24,1.83,3.76.09,2.18-.74,4-2.54,5.43-1.8,1.43-4.3,2.25-7.45,2.4-4.81.23-9.62.33-14.44.31ZM181.63,162.06c-1.48.03-2.97.04-4.45.05-.07,1.97-.13,3.95-.2,5.92,1.4-.01,2.79-.03,4.19-.07,1.34-.03,2.36-.32,3.06-.85.7-.53,1.04-1.27,1.04-2.22,0-.94-.33-1.65-.96-2.13-.63-.49-1.53-.72-2.69-.69ZM181.51,171.87c-1.55.05-3.1.08-4.66.1-.08,2.25-.15,4.5-.23,6.74,1.73-.03,3.45-.08,5.18-.14,1.49-.06,2.63-.4,3.41-1.01.78-.61,1.16-1.46,1.15-2.55-.03-2.22-1.64-3.24-4.85-3.14Z"/>
          <path class="cls-1" d="M211.79,180.41c-4.25.64-7.74-.06-10.35-2.04-2.62-1.98-3.99-4.99-4.22-8.95-.23-3.91.76-7.1,2.84-9.57,2.09-2.47,4.96-3.88,8.71-4.35,3.77-.47,6.89.18,9.5,2,2.6,1.82,4.29,4.56,4.99,8.32.7,3.8.09,7.01-1.96,9.63-2.05,2.62-5.25,4.31-9.51,4.96ZM206.48,174.11c1.21,1.19,2.79,1.65,4.71,1.37,1.92-.28,3.33-1.18,4.21-2.66.88-1.48,1.13-3.4.77-5.77-.35-2.34-1.14-4.08-2.35-5.25-1.21-1.17-2.68-1.64-4.46-1.41-1.79.23-3.12,1.06-4,2.53-.89,1.46-1.24,3.38-1.02,5.77.22,2.41.92,4.23,2.14,5.42Z"/>
          <path class="cls-1" d="M239.67,149.79c3.1-.79,5.84-.46,8.31,1.03,2.46,1.48,4.33,3.93,5.54,7.4,1.2,3.47,1.21,6.52-.08,9.15-1.28,2.63-3.66,4.48-7.07,5.45-1.96.56-3.78.67-5.44.33-1.66-.33-3.01-1.07-4.06-2.2-.05.01-.1.02-.15.04.9,3.69,1.8,7.38,2.69,11.07-2.5.64-5.01,1.24-7.52,1.82-2.12-10.2-4.24-20.41-6.36-30.61,2.16-.42,4.31-.87,6.45-1.34.32,1.31.63,2.61.95,3.92.05-.01.09-.02.14-.03.35-1.44,1.12-2.69,2.28-3.76,1.17-1.07,2.6-1.81,4.31-2.25ZM242.54,168.65c1.84-.49,3.14-1.52,3.87-3.03.73-1.52.77-3.29.15-5.31-.61-2-1.63-3.45-3.04-4.38-1.41-.93-2.95-1.18-4.67-.74-1.7.43-2.9,1.37-3.63,2.87-.73,1.49-.86,3.27-.36,5.33.5,2.06,1.44,3.58,2.85,4.55,1.41.97,3.03,1.21,4.84.73Z"/>
          <path class="cls-1" d="M268.99,165.05c-2.3.87-4.61,1.71-6.92,2.52-2.68-7.21-5.35-14.42-8.03-21.63,2.09-.67,4.17-1.37,6.24-2.09,1.84,4.48,3.68,8.95,5.51,13.43.06-.02.12-.05.19-.07,1.69-5.78,3.13-11.49,4.33-17.12,2.05-.82,4.09-1.66,6.12-2.54,3.48,6.67,6.96,13.35,10.43,20.02-2.24,1.03-4.5,2.04-6.76,3.01-2.09-4.37-4.18-8.75-6.27-13.12-.06.02-.12.05-.18.07-1.3,5.77-2.86,11.61-4.66,17.53Z"/>
          <path class="cls-1" d="M306.35,130.84c-1.92,1.13-3.85,2.23-5.8,3.3-.82-.69-1.8-1.06-2.92-1.13-1.12-.06-2.27.21-3.46.83-1.59.83-2.54,1.99-2.84,3.51-.31,1.52.08,3.2,1.18,5.04,1.11,1.86,2.47,3.06,4.09,3.58,1.62.52,3.3.32,5-.6,1.27-.69,2.17-1.51,2.69-2.43.52-.93.62-1.9.31-2.93,2-1.13,3.98-2.28,5.96-3.46,1.12,2.12,1.13,4.34-.02,6.66-1.15,2.32-3.32,4.39-6.48,6.12-3.77,2.07-7.35,2.74-10.61,2.04-3.26-.7-5.72-2.68-7.46-5.83-1.72-3.11-2.01-6.08-1-8.86,1.02-2.79,3.19-4.98,6.57-6.71,2.86-1.47,5.58-2.11,8.25-1.94,2.66.18,4.85,1.09,6.52,2.8Z"/>
          <path class="cls-1" d="M319.16,139.99c-4.48-5.81-8.95-11.62-13.43-17.43,1.96-1.17,3.9-2.37,5.83-3.6,1.36,1.63,2.71,3.26,4.07,4.9,1.46-.95,2.91-1.91,4.36-2.88,2.63-1.78,5.17-2.73,7.68-2.84,2.51-.11,4.6.64,6.25,2.32,1.65,1.68,2.17,3.61,1.5,5.83-.66,2.21-2.41,4.36-5.22,6.33-3.64,2.56-7.32,5.02-11.06,7.38ZM321.88,124.85c-1.16.79-2.32,1.56-3.49,2.32,1.46,1.76,2.92,3.52,4.39,5.28,1.2-.8,2.4-1.61,3.59-2.43,1.18-.81,1.91-1.71,2.19-2.67.28-.96.07-1.82-.62-2.58-.68-.75-1.58-1.11-2.69-1.1-1.11.01-2.23.41-3.37,1.18Z"/>
        </g>
        <path class="cls-3" d="M354.41,143.2c-.03-.61-.21-3.9-1.4-8.74l7.77-1.91c1.33,5.44,1.58,9.26,1.62,10.31l-7.99.34ZM351.11,128.15c-2.41-6.75-5.88-13.09-10.33-18.84-9.67-12.52-19.58-16.62-22.39-17.58l2.59-7.57c3.34,1.14,15.1,5.98,26.14,20.26,4.96,6.42,8.84,13.5,11.53,21.05l-7.54,2.69Z"/>
      </g>
    </g>
  </g>
</svg>