<?xml version="1.0" encoding="UTF-8"?>
<svg id="Layer_2" data-name="Layer 2" xmlns="http://www.w3.org/2000/svg" viewBox="0 0 400 300">
  <defs>
    <style>
      .cls-1 {
        fill: #000;
      }

      .cls-1, .cls-2 {
        stroke-width: 0px;
      }

      .cls-2 {
        fill: none;
      }
    </style>
  </defs>
  <g id="Layer_1-2" data-name="Layer 1">
    <g>
      <rect class="cls-2" width="400" height="300"/>
      <g>
        <path class="cls-1" d="M117.49,145.16l.54,3.39-12.47-19.33h7.16l9.16,14.94h6.16v-14.94h6.16v14.94h6.16l9.24-14.94h7.08l-12.4,19.33.38-3.39,12.55,20.79h-7.39l-9.47-16.32h-6.16v16.32h-6.16v-16.32h-6.16l-9.32,16.32h-7.47l12.4-20.79Z"/>
        <path class="cls-1" d="M159.46,160.02h3.85c1.28-1.08,2.35-2.55,3.2-4.43.85-1.87,1.35-3.91,1.5-6.12.15-2.26.26-6.57.31-12.94.05-1.44.08-3.88.08-7.31h26.33v30.8h5.93v16.25h-6.24v-10.32h-28.72v10.32h-6.24v-16.25ZM188.26,160.02v-24.87h-13.78c0,7.65-.13,12.7-.38,15.17-.36,3.7-1.51,6.93-3.47,9.7h17.63Z"/>
        <path class="cls-1" d="M209.93,161.79c-3.11-3.28-4.66-8.01-4.66-14.17,0-4.16.76-7.67,2.27-10.55,1.51-2.87,3.59-5.03,6.24-6.47,2.64-1.44,5.61-2.16,8.89-2.16,4.93,0,8.87,1.54,11.82,4.62,2.95,3.08,4.43,7.29,4.43,12.63,0,1.69-.05,2.8-.15,3.31h-28.34l1.08-1.46v.38c0,4.31.95,7.6,2.85,9.86,1.9,2.26,4.52,3.39,7.85,3.39,2.67,0,4.84-.63,6.51-1.89,1.67-1.26,2.84-2.86,3.5-4.81l5.77,1.23c-.87,3.29-2.67,5.94-5.39,7.97-2.72,2.03-6.21,3.04-10.47,3.04-5.03,0-9.1-1.64-12.21-4.93ZM232.76,144.39c0-3.03-.9-5.53-2.7-7.51-1.8-1.98-4.26-2.96-7.39-2.96s-5.85,1.04-7.85,3.12-3.11,5.07-3.31,8.97l-1.08-2h23.33l-1,2v-1.62ZM228.38,114.61l5.76,2.1-6.28,17.26-5.76-2.1,6.28-17.26ZM210.09,116.69l5.73-2.09,6.28,17.26-5.73,2.09-6.28-17.26Z"/>
        <path class="cls-1" d="M247.62,129.22h9.47l13.48,33.11h-2.39l13.17-33.11h9.47v36.73h-6.24v-33.03h1.31l-13.55,33.03h-6.54l-13.24-32.57h1.08v32.57h-6.01v-36.73Z"/>
      </g>
    </g>
  </g>
</svg>