<?xml version="1.0" encoding="UTF-8"?>
<svg id="Layer_2" data-name="Layer 2" xmlns="http://www.w3.org/2000/svg" viewBox="0 0 1018.03 305.11">
  <defs>
    <style>
      .cls-1 {
        fill: #fff;
        stroke-width: 0px;
      }
    </style>
  </defs>
  <g id="Layer_1-2" data-name="Layer 1">
    <g>
      <path class="cls-1" d="M804.24,201.53c6.53,3.64,10.16,5.66,13.79,7.68-2.5,4.44-4.06,10.07-7.76,13-3.86,3.05-9.7,4.55-14.8,4.94-73.68,5.66-147.37,11.04-221.07,16.44-7.88.58-15.79.86-23.68,1.28-.35-1.7-.7-3.39-1.05-5.09,4.89-1.57,9.68-3.65,14.69-4.6,12.81-2.44,29.25-.36,37.58-7.68,7.95-6.98,6.7-23.82,10.87-35.84,20.39-58.83,41.14-117.53,62.15-176.14,1.43-4,6.08-6.84,9.24-10.22,3.53,4.15,9.13,7.9,10.06,12.57,1.09,5.47-.91,12.17-3.27,17.6-21.02,48.45-42.8,96.58-63.47,145.18-6.38,15-10,31.17-15.62,49.17,20.82-1.59,39.24-2.38,57.5-4.54,34.42-4.08,68.66-9.85,103.15-13.12,17.26-1.64,24.45-10.06,26.32-28.02-9.41,8.34-17.7,10.08-23.05-3.86-5.77,7.56-10.25,14.82-16.16,20.63-3.43,3.37-9.85,6.88-13.64,5.8-3.56-1.01-7.38-7.81-7.73-12.33-1.69-21.82,3.18-42.62,12.68-62.3.87-1.81,2.21-4.02,3.87-4.68,3.89-1.55,8.11-2.27,12.2-3.32-.31,3.69.04,7.59-1.06,11.03-5.52,17.27-11.55,34.37-17.07,51.64-.9,2.82-.13,6.18-.13,13.14,5.66-6.05,10.15-9.15,12.24-13.43,5.78-11.81,10.58-24.11,15.71-36.24,2.08-4.91,2.99-10.77,6.31-14.57,2.65-3.04,8.14-3.61,12.36-5.27.49,4.01,2.12,8.28,1.26,11.98-2.73,11.71-6.4,23.21-7.83,35.59,15.19-12.5,23.6-29.14,32.02-45.85,2.54-5.04,5.41-10.31,9.45-14.05,2.24-2.08,7.2-1.22,10.93-1.69,0,3.42,1.11,7.35-.2,10.16-4.9,10.46-10.62,20.53-15.96,30.78-.86,1.65-1.4,3.47-3.47,3.29,11.11-9.64,21.9-19.69,33.48-28.73,4.34-3.39,10.5-4.47,15.82-6.6-.18,5.4.53,11.01-.72,16.14-2.4,9.85-5.9,19.43-8.95,29.12.92.49,1.83.99,2.75,1.48,9.73-12.98,19.2-26.16,29.26-38.88,8.85-11.18,13.87-11.82,24.91-4.57.67-.27,1.43-.45,2.05-.86,4.98-3.26,11.42-10.38,14.61-9.14,9.16,3.59,5.85,12.09,2.8,19.08-9.49,21.74-19.14,43.42-26.84,66.08,13.81-24.21,27.4-48.54,41.56-72.55,3.91-6.62,8.72-13.14,14.49-18.12,6.16-5.33,13.26-4.42,17.8,3.29,12.46,21.15-7.82,60-33.95,61.88-.61,7.06-1.24,14.4-1.87,21.74,1.13.77,2.26,1.53,3.38,2.3,4.42-2.97,9.91-5.08,13.07-9.05,13.34-16.74,26.01-34.01,38.86-51.14,3.52-4.69,6.85-9.53,10.26-14.31,1.21.49,2.43.99,3.64,1.48-.5,3.16,0,7.01-1.65,9.36-14.44,20.54-29.22,40.85-44.06,61.11-1.66,2.27-4.05,4.67-6.6,5.49-6.74,2.15-14.89,6.34-20.27,4.2-4.23-1.69-5.67-11.48-7.42-17.92-1.01-3.73-.18-7.96-.18-11.96-1.12-.44-2.23-.88-3.35-1.32-22.92,42.3-45.85,84.61-68.77,126.91-1.44-.4-2.87-.8-4.31-1.2,1.04-5.89,1.32-12.05,3.23-17.64,10.68-31.17,21.77-62.21,33.09-94.37-1.89.66-2.94.8-3.71,1.33-4.44,3.04-8.82,6.17-13.22,9.26-1.37-6.09-3.09-12.12-3.96-18.28-.43-3.07.71-6.36-.92-10.89-3.89,4.81-7.33,10.12-11.84,14.26-2.66,2.44-7.28,4.48-10.52,3.91-2.21-.39-4.74-5.49-5.07-8.7-.75-7.3-.24-14.73-.24-22.11-1.02-.84-2.05-1.68-3.07-2.52-13.47,14.26-26.93,28.51-40.97,43.38ZM885.4,183.66c1.22.68,2.44,1.36,3.66,2.04,6.77-9.48,13.78-18.81,20.13-28.57,1.53-2.35.87-6.12,1.22-9.24-3.12,1.3-7.78,1.73-9.1,4.05-5.83,10.27-10.69,21.09-15.9,31.72ZM971.32,136.54c-1.19-.46-2.37-.92-3.56-1.38-4.51,10.05-9.02,20.09-13.53,30.14,14.57-3.85,18.73-12.61,17.09-28.76Z"/>
      <path class="cls-1" d="M374.63,169.55c-9.64,11.17-16.98,19.68-24.33,28.18l-4-1.37c5.6-19.4,11.19-38.79,16.79-58.19-.63-.27-1.25-.54-1.88-.81-4.95,7.46-9.04,15.71-15.04,22.21-11.12,12.03-23.08,23.35-35.36,34.19-2.25,1.99-7.73.32-11.73.34,1.68-3.62,2.44-9.3,5.18-10.53,15.9-7.09,18.46-20.43,16.84-36.79-3.3,4.18-7.25,7.99-9.77,12.6-7.12,13.02-13.44,26.48-20.57,39.5-1.67,3.04-5.26,5.03-7.96,7.51-1.3-3.64-4.14-7.51-3.62-10.87,2.26-14.64,5.46-29.14,8.42-43.68,1.06-5.22,2.41-10.39,4.24-18.23-4.94,5.26-8.23,8.76-11.52,12.26-1.03-.38-2.05-.76-3.08-1.14.79-3.78.89-7.89,2.49-11.29,9.16-19.4,18.56-38.7,28.18-57.88,2.18-4.35,4.71-9.57,8.57-11.74,4.27-2.4,10.25-1.75,15.48-2.42-.31,4.42.52,9.32-1.1,13.19-12.61,29.95-25.68,59.7-38.62,89.51,1.22.59,2.43,1.18,3.65,1.78,3.98-7.27,7.71-14.68,12.01-21.76,3.62-5.97,7.23-12.22,12.13-17.03,2.66-2.61,8.47-4.07,12.02-3.07,2.82.8,5.92,6.01,6.17,9.45.51,7.23-.78,14.58-1.62,25.65,8.71-14.46,16.4-25.92,22.75-38.09,10.31-19.75,19.44-40.13,29.72-59.9,3.33-6.41,8.07-12.47,13.44-17.26,2.57-2.29,8.12-1.26,12.32-1.73-.03,4.05,1.19,8.64-.27,12.07-14.06,33.02-28.58,65.84-42.92,98.74-.91,2.08-1.33,4.37-4.1,3.75,13.92-12.18,27.69-24.54,41.82-36.47,8.29-6.99,17.41-10,27.71-3.29-15.34,13.56-34.22,23.88-42.94,39.77-8.67,15.81-7.14,37.22-10.08,56.17,1.44.62,2.87,1.23,4.31,1.85,3.03-3.32,6.62-6.29,8.99-10.03,13.26-20.91,25.99-42.16,39.44-62.95,4.4-6.8,9.57-13.69,15.93-18.51,9.88-7.48,20.96-2.42,20.99,9.86.04,23.9-9.65,44.21-28.19,59.39-8.36,6.84-13.62,4.02-21.51-9.35-8.45,11.8-16.19,24-25.46,34.9-4.35,5.12-11.66,7.74-17.62,11.49-2.1-6.31-5.52-12.52-6.03-18.96-.97-12.27-.28-24.67-.28-41.01ZM435.25,186.18c12.65-5.86,25.14-28.18,22.69-38.36-1.49-6.2-5.77-7.58-9.6-2.67-8.95,11.49-14.7,24.33-13.1,41.02Z"/>
      <path class="cls-1" d="M35.47,239.5c-11.16-3.82-21-6.39-29.98-10.73-2.97-1.44-3.72-7.46-5.48-11.38,3.95-1.14,8.01-3.57,11.83-3.23,63.24,5.69,119.85-12.83,171.82-47.39,9.71-6.46,20.63-14.93,17.31-28.97-3.34-14.11-16.9-16.42-28.54-17.82-22.08-2.66-44.39-3.46-66.58-5.25-12.31-.99-24.68-1.87-36.86-3.82-10.54-1.69-15.59-9.17-11.25-18.96,4.42-9.95,9.76-20.57,17.58-27.75C116.05,26.81,163.9,4.39,219.55.28c10.44-.77,21.43-.68,26.89,10.67,5.31,11.05.86,20.84-5.91,29.86-11.69,15.59-28.89,21.57-46.73,25.62-2.97.68-10.4-4.63-10.26-6.8.28-4.18,3.59-9.86,7.28-11.76,8.29-4.27,18.14-5.6,26.2-10.16,3.92-2.22,5.27-9,7.78-13.71-4.53-.92-9.23-3.13-13.57-2.57-40.99,5.31-79.88,17.11-114.76,39.91-6.8,4.45-13.17,10.12-18.32,16.4-7.92,9.66-5.86,14.64,6.23,16.53,9.35,1.47,18.9,1.6,28.29,2.84,22.43,2.97,45.58,3.64,67.06,9.96,37.49,11.03,43.74,41.25,15.64,68.55-21.84,21.22-49.31,33.27-77.7,42.28-27,8.57-54.83,14.53-82.21,21.61Z"/>
      <path class="cls-1" d="M218.97,181.12c2.39-22.85,8.09-40.56,22.28-53.8,4.35-4.06,14.38-7.74,17.98-5.49,4.7,2.95,8.15,12.19,7.62,18.34-1.55,18.11-9.3,34.43-22.22,47.27-4.23,4.2-12.69,7.63-17.87,6.27-4.17-1.09-6.3-9.93-7.8-12.59ZM230.67,185.05c14.64-6.09,23.95-29.14,17.12-42.4-13.46,6.26-21.76,26.82-17.12,42.4Z"/>
      <path class="cls-1" d="M738.82,133.69c-3.35,23.89-10.97,43.05-27.56,57.47-3.18,2.76-10,4.85-13.12,3.27-3.86-1.96-7.85-8.06-7.9-12.41-.24-22.29,7.24-42.11,24.13-57.05,3.75-3.32,11.87-4.7,16.57-3.03,3.98,1.42,5.92,8.55,7.9,11.75ZM718.5,142.01c-15.05,8.82-23.46,32.3-16.18,43.44,14.49-9.25,22.17-29.06,16.18-43.44Z"/>
    </g>
  </g>
</svg>