<?xml version="1.0" encoding="UTF-8"?>
<svg id="Layer_2" data-name="Layer 2" xmlns="http://www.w3.org/2000/svg" viewBox="0 0 734.04 711.62">
  <defs>
    <style>
      .cls-1 {
        fill: #000;
      }

      .cls-1, .cls-2 {
        stroke-width: 0px;
      }

      .cls-2 {
        fill: #fff;
      }
    </style>
  </defs>
  <g id="Layer_1-2" data-name="Layer 1">
    <ellipse class="cls-1" cx="367.02" cy="355.81" rx="367.02" ry="355.81"/>
    <path class="cls-2" d="M552.58,452.66c6.53,3.64,12.43,4.04,13.79,7.68s-4.06,10.07-7.76,13c-3.86,3.05-9.7,4.55-14.8,4.94-73.68,5.66-147.37,11.04-221.07,16.44-7.88.58-15.79.86-23.68,1.28-.35-1.7-.7-3.39-1.05-5.09,4.89-1.57,9.68-3.65,14.69-4.6,12.81-2.44,29.25-.36,37.58-7.68,7.95-6.98,6.7-23.82,10.87-35.84,20.39-58.83,41.14-117.53,62.15-176.14,1.43-4,6.08-6.84,9.24-10.22,3.53,4.15,9.13,7.9,10.06,12.57,1.09,5.47-.91,12.17-3.27,17.6-21.02,48.45-42.8,96.58-63.47,145.18-6.38,15-10,31.17-15.62,49.17,20.82-1.59,39.24-2.38,57.5-4.54,34.42-4.08,68.66-9.85,103.15-13.12,10.39-.99,17.02-8.53,21.25-10.94,4.24-2.41,10.45.3,10.45.3Z"/>
    <path class="cls-2" d="M190.25,445.42c-11.16-3.82-21-6.39-29.98-10.73-2.97-1.44-3.72-7.46-5.48-11.38,3.95-1.14,8.01-3.57,11.83-3.23,63.24,5.69,119.85-12.83,171.82-47.39,9.71-6.46,20.63-14.93,17.31-28.97-3.34-14.11-16.9-16.42-28.54-17.82-22.08-2.66-44.39-3.46-66.58-5.25-12.31-.99-24.68-1.87-36.86-3.82-10.54-1.69-15.59-9.17-11.25-18.96,4.42-9.95,9.76-20.57,17.58-27.75,40.74-37.4,88.59-59.82,144.25-63.93,10.44-.77,21.43-.68,26.89,10.67,5.31,11.05.86,20.84-5.91,29.86-11.69,15.59-28.89,21.57-46.73,25.62-2.97.68-10.4-4.63-10.26-6.8.28-4.18,3.59-9.86,7.28-11.76,8.29-4.27,18.14-5.6,26.2-10.16,3.92-2.22,5.27-9,7.78-13.71-4.53-.92-9.23-3.13-13.57-2.57-40.99,5.31-79.88,17.11-114.76,39.91-6.8,4.45-13.17,10.12-18.32,16.4-7.92,9.66-5.86,14.64,6.23,16.53,9.35,1.47,18.9,1.6,28.29,2.84,22.43,2.97,45.58,3.64,67.06,9.96,37.49,11.03,43.74,41.25,15.64,68.55-21.84,21.22-49.31,33.27-77.7,42.28-27,8.57-54.83,14.53-82.21,21.61Z"/>
  </g>
</svg>