<?xml version="1.0" encoding="UTF-8"?>
<svg id="Layer_2" data-name="Layer 2" xmlns="http://www.w3.org/2000/svg" viewBox="0 0 13.16 7.5">
  <defs>
    <style>
      .cls-1 {
        fill: #000000;
        stroke-width: 0px;
      }
    </style>
  </defs>
  <g id="Layer_1-2" data-name="Layer 1">
    <g>
      <path class="cls-1" d="M10.91,3.16v1.51c0,.54-.29,1.05-.77,1.31-.78.43-2.01.94-3.57.93-1.55,0-2.78-.5-3.55-.93-.47-.26-.77-.77-.77-1.31v-1.51l3.04.99c.42.14.86.21,1.29.21s.87-.07,1.29-.21l3.04-.99Z"/>
      <path class="cls-1" d="M13.16,1.82c0,.14-.09.32-.35.41l-5.03,1.63c-.79.26-1.62.25-2.4,0L.35,2.23c-.26-.09-.35-.27-.35-.41,0-.17.12-.31.32-.38L5.88.11c.23-.07.46-.11.7-.11s.48.04.71.12l5.55,1.33c.21.07.33.21.33.38Z"/>
      <rect class="cls-1" x="11.83" y="2.32" width=".42" height="3.27"/>
      <path class="cls-1" d="M11.3,6.81l.74-2.13.74,2.12c.07.2,0,.41-.18.53-.14.09-.33.17-.56.17-.23,0-.41-.07-.55-.16-.18-.11-.25-.33-.18-.53Z"/>
    </g>
  </g>
</svg>