<?xml version="1.0" encoding="UTF-8"?>
<svg id="Layer_2" data-name="Layer 2" xmlns="http://www.w3.org/2000/svg" viewBox="0 0 400 301.27">
  <defs>
    <style>
      .cls-1 {
        fill: #000;
      }

      .cls-1, .cls-2 {
        stroke-width: 0px;
      }

      .cls-2 {
        fill: #fff;
      }
    </style>
  </defs>
  <g id="Layer_1-2" data-name="Layer 1">
    <g>
      <path class="cls-2" d="M189.45,160.84c-1.68-.08-3.36-.17-5.04-.27-.26,2.42-.52,4.84-.79,7.27,1.87.1,3.74.19,5.6.26,1.62.06,2.88-.21,3.77-.81.89-.6,1.38-1.49,1.45-2.66.15-2.4-1.51-3.63-4.99-3.79ZM227.29,158.46c-.19-2.56-.9-4.51-2.11-5.87-1.21-1.36-2.77-1.99-4.7-1.88-1.95.1-3.46.9-4.53,2.4-1.08,1.51-1.61,3.56-1.57,6.15.05,2.63.66,4.64,1.87,6.03,1.21,1.38,2.88,2.01,4.98,1.86,2.09-.14,3.69-1,4.76-2.52,1.07-1.53,1.49-3.59,1.3-6.17ZM227.29,158.46c-.19-2.56-.9-4.51-2.11-5.87-1.21-1.36-2.77-1.99-4.7-1.88-1.95.1-3.46.9-4.53,2.4-1.08,1.51-1.61,3.56-1.57,6.15.05,2.63.66,4.64,1.87,6.03,1.21,1.38,2.88,2.01,4.98,1.86,2.09-.14,3.69-1,4.76-2.52,1.07-1.53,1.49-3.59,1.3-6.17ZM189.45,160.84c-1.68-.08-3.36-.17-5.04-.27-.26,2.42-.52,4.84-.79,7.27,1.87.1,3.74.19,5.6.26,1.62.06,2.88-.21,3.77-.81.89-.6,1.38-1.49,1.45-2.66.15-2.4-1.51-3.63-4.99-3.79ZM189.45,160.84c-1.68-.08-3.36-.17-5.04-.27-.26,2.42-.52,4.84-.79,7.27,1.87.1,3.74.19,5.6.26,1.62.06,2.88-.21,3.77-.81.89-.6,1.38-1.49,1.45-2.66.15-2.4-1.51-3.63-4.99-3.79ZM227.29,158.46c-.19-2.56-.9-4.51-2.11-5.87-1.21-1.36-2.77-1.99-4.7-1.88-1.95.1-3.46.9-4.53,2.4-1.08,1.51-1.61,3.56-1.57,6.15.05,2.63.66,4.64,1.87,6.03,1.21,1.38,2.88,2.01,4.98,1.86,2.09-.14,3.69-1,4.76-2.52,1.07-1.53,1.49-3.59,1.3-6.17ZM227.29,158.46c-.19-2.56-.9-4.51-2.11-5.87-1.21-1.36-2.77-1.99-4.7-1.88-1.95.1-3.46.9-4.53,2.4-1.08,1.51-1.61,3.56-1.57,6.15.05,2.63.66,4.64,1.87,6.03,1.21,1.38,2.88,2.01,4.98,1.86,2.09-.14,3.69-1,4.76-2.52,1.07-1.53,1.49-3.59,1.3-6.17ZM189.45,160.84c-1.68-.08-3.36-.17-5.04-.27-.26,2.42-.52,4.84-.79,7.27,1.87.1,3.74.19,5.6.26,1.62.06,2.88-.21,3.77-.81.89-.6,1.38-1.49,1.45-2.66.15-2.4-1.51-3.63-4.99-3.79ZM0,0v300h400V0H0ZM107.8,155.04c-3.63,1.67-7.76,1.74-12.22.12-3.28-1.19-5.7-2.93-7.22-5.16h11.44c.56.08,1.11.08,1.66,0h12.24c-1.58,2.27-3.53,3.95-5.9,5.04ZM123.46,163.27c-2.63-.68-5.25-1.39-7.87-2.14,1.44-3.71,2.89-7.42,4.33-11.13h8.24c-1.57,4.42-3.14,8.84-4.7,13.27ZM171.96,157.79c-.72,4.42-2.56,7.75-5.65,9.96-3.09,2.21-7.02,3.03-11.66,2.34-4.62-.68-7.96-2.59-9.91-5.61-1.95-3.03-2.23-6.78-.97-11.2.33-1.18.74-2.27,1.23-3.28h8.54c-.92,1.23-1.63,2.83-2.12,4.79-.69,2.72-.65,4.95.15,6.65.79,1.71,2.25,2.73,4.33,3.05,2.09.31,3.88-.21,5.34-1.55,1.46-1.35,2.44-3.38,2.98-6.1.52-2.69.37-4.87-.43-6.55-.05-.1-.1-.2-.16-.29h7.86c.78,2.25.94,4.84.47,7.79ZM199.07,170.78c-2.06,1.4-4.83,2.09-8.25,2-5.21-.15-10.42-.42-15.62-.84,1.02-7.31,2.05-14.63,3.08-21.94h7.28c-.22,2.11-.45,4.22-.69,6.33,1.52.1,3.03.19,4.54.27,1.45.07,2.58-.16,3.38-.67.8-.52,1.23-1.3,1.3-2.32.07-1.02-.22-1.81-.86-2.38-.64-.58-1.59-.9-2.85-.97-1.36-.08-2.73-.16-4.1-.26h14.62c.38.84.56,1.79.51,2.86-.05,1.43-.58,2.69-1.61,3.78-1.02,1.09-2.29,1.74-3.78,1.93-.01.06-.01.13-.01.19,1.9.28,3.42.99,4.58,2.15,1.16,1.16,1.72,2.56,1.67,4.21-.08,2.37-1.13,4.26-3.19,5.66ZM232.15,167.93c-2.43,2.66-6.02,4.24-10.68,4.59-4.64.34-8.35-.7-11.01-3.05-2.67-2.35-3.91-5.71-3.84-10.01.06-3.89,1.18-7.04,3.27-9.46h22.15c1.65,2,2.67,4.55,3.01,7.69.45,4.16-.48,7.58-2.9,10.24ZM267.53,161.8c-1.59,2.73-4.31,4.54-8.08,5.31-2.17.44-4.14.41-5.9-.08-1.76-.5-3.16-1.4-4.21-2.7-.05.01-.11.01-.16.02.67,4.06,1.34,8.12,2.01,12.18-2.75.49-5.51.94-8.27,1.35-1.22-9.29-2.43-18.59-3.65-27.88h9.49c-.06.08-.12.17-.17.26-.91,1.56-1.2,3.47-.82,5.73.37,2.26,1.26,3.98,2.7,5.14,1.44,1.16,3.18,1.56,5.18,1.18,2.03-.39,3.51-1.39,4.42-2.96.91-1.58,1.09-3.49.59-5.73-.33-1.44-.86-2.65-1.6-3.62h8.69c.22.61.42,1.25.6,1.92,1.02,3.85.78,7.14-.82,9.88ZM284.51,160.56c-2.55.75-5.11,1.47-7.68,2.16-1.22-4.24-2.45-8.48-3.67-12.72h7.91c.21.63.41,1.26.62,1.89.07-.02.14-.04.2-.06.23-.61.46-1.22.68-1.83h5.8c-1.2,3.5-2.48,7.02-3.86,10.56ZM304.42,153.92c-2.5.93-5.02,1.83-7.55,2.7-.86-2.21-1.71-4.42-2.57-6.62h8.44c.56,1.31,1.12,2.61,1.68,3.92ZM225.18,152.59c-1.21-1.36-2.77-1.99-4.7-1.88-1.95.1-3.46.9-4.53,2.4-1.08,1.51-1.61,3.56-1.57,6.15.05,2.63.66,4.64,1.87,6.03,1.21,1.38,2.88,2.01,4.98,1.86,2.09-.14,3.69-1,4.76-2.52,1.07-1.53,1.49-3.59,1.3-6.17-.19-2.56-.9-4.51-2.11-5.87ZM189.45,160.84c-1.68-.08-3.36-.17-5.04-.27-.26,2.42-.52,4.84-.79,7.27,1.87.1,3.74.19,5.6.26,1.62.06,2.88-.21,3.77-.81.89-.6,1.38-1.49,1.45-2.66.15-2.4-1.51-3.63-4.99-3.79ZM189.45,160.84c-1.68-.08-3.36-.17-5.04-.27-.26,2.42-.52,4.84-.79,7.27,1.87.1,3.74.19,5.6.26,1.62.06,2.88-.21,3.77-.81.89-.6,1.38-1.49,1.45-2.66.15-2.4-1.51-3.63-4.99-3.79ZM227.29,158.46c-.19-2.56-.9-4.51-2.11-5.87-1.21-1.36-2.77-1.99-4.7-1.88-1.95.1-3.46.9-4.53,2.4-1.08,1.51-1.61,3.56-1.57,6.15.05,2.63.66,4.64,1.87,6.03,1.21,1.38,2.88,2.01,4.98,1.86,2.09-.14,3.69-1,4.76-2.52,1.07-1.53,1.49-3.59,1.3-6.17ZM227.29,158.46c-.19-2.56-.9-4.51-2.11-5.87-1.21-1.36-2.77-1.99-4.7-1.88-1.95.1-3.46.9-4.53,2.4-1.08,1.51-1.61,3.56-1.57,6.15.05,2.63.66,4.64,1.87,6.03,1.21,1.38,2.88,2.01,4.98,1.86,2.09-.14,3.69-1,4.76-2.52,1.07-1.53,1.49-3.59,1.3-6.17ZM189.45,160.84c-1.68-.08-3.36-.17-5.04-.27-.26,2.42-.52,4.84-.79,7.27,1.87.1,3.74.19,5.6.26,1.62.06,2.88-.21,3.77-.81.89-.6,1.38-1.49,1.45-2.66.15-2.4-1.51-3.63-4.99-3.79ZM189.45,160.84c-1.68-.08-3.36-.17-5.04-.27-.26,2.42-.52,4.84-.79,7.27,1.87.1,3.74.19,5.6.26,1.62.06,2.88-.21,3.77-.81.89-.6,1.38-1.49,1.45-2.66.15-2.4-1.51-3.63-4.99-3.79ZM189.45,160.84c-1.68-.08-3.36-.17-5.04-.27-.26,2.42-.52,4.84-.79,7.27,1.87.1,3.74.19,5.6.26,1.62.06,2.88-.21,3.77-.81.89-.6,1.38-1.49,1.45-2.66.15-2.4-1.51-3.63-4.99-3.79Z"/>
      <g>
        <path class="cls-1" d="M47.02,131.85c-1.64,2.21-3.27,4.42-4.91,6.64-2.35-1.35-4.68-2.73-7.01-4.14,3.21-4.1,6.43-8.21,9.64-12.31.8.5,1.61,1,2.42,1.49,1.73-.05,3.34-.61,4.82-1.66,1.48-1.05,3.2-2.74,5.15-5.07,5.09-6.09,10.14-12.18,15.16-18.3,7.09,4.45,14.35,8.53,21.75,12.23-5.66,9.6-11.33,19.19-16.99,28.79,1.51.7,3.02,1.38,4.54,2.06-2.45,4.32-4.9,8.65-7.34,12.97-2.44-1.05-4.87-2.13-7.29-3.25,1.38-2.29,2.76-4.57,4.14-6.86-8.16-3.81-16.18-8.01-24.06-12.59ZM63.2,121.12c-1.58,1.97-2.99,3.5-4.23,4.59-1.24,1.09-2.52,1.84-3.84,2.25-.04.06-.09.12-.13.19,4.78,2.72,9.61,5.3,14.5,7.74,4.76-7.53,9.52-15.07,14.28-22.6-3.36-1.77-6.69-3.62-9.99-5.55-3.5,4.47-7.03,8.93-10.58,13.39Z"/>
        <path class="cls-1" d="M116.66,134.36c-1.26-3.33-3.78-5.7-7.65-7.23-3.86-1.51-7.52-1.56-11.14-.06-3.61,1.5-6.65,4.34-8.99,8.61-2.37,4.31-3.03,8.23-1.82,11.74.32.92.75,1.78,1.3,2.58h11.44c-.52-.05-1.04-.18-1.57-.38-2-.74-3.2-2.08-3.57-3.99-.38-1.92.14-4.21,1.51-6.89,1.35-2.65,2.94-4.5,4.74-5.57s3.61-1.24,5.46-.52c1.83.7,2.92,1.99,3.29,3.88.38,1.9-.02,4.17-1.21,6.84-1.21,2.7-2.7,4.61-4.5,5.71-.8.49-1.63.8-2.49.92h12.24c.85-1.21,1.59-2.59,2.22-4.12,1.8-4.37,2-8.19.74-11.52Z"/>
        <path class="cls-1" d="M126.23,133.76c-2.11,5.41-4.21,10.82-6.31,16.24h8.24c1.02-2.88,2.04-5.77,3.06-8.65,3.87,1.08,7.77,2.08,11.67,2.99.55-1.84,1.1-3.68,1.65-5.52-6.15-1.46-12.26-3.15-18.31-5.06Z"/>
        <path class="cls-1" d="M169.99,147c-1.99-2.85-4.95-4.58-9.01-5.29-4.04-.7-7.54-.08-10.64,1.96-2.26,1.49-4.05,3.59-5.34,6.33h8.54c.34-.46.71-.87,1.11-1.23,1.47-1.32,3.16-1.8,5.09-1.48,1.8.3,3.09,1.2,3.89,2.71h7.86c-.36-1.08-.86-2.08-1.5-3Z"/>
        <path class="cls-1" d="M199.19,147.85c-1.55-1.25-3.71-1.93-6.51-2.08-4.56-.24-9.11-.59-13.65-1.07-.25,1.77-.5,3.53-.75,5.3h7.28s.01-.03.01-.05c.24.02.47.04.71.05h14.62c-.37-.83-.94-1.54-1.71-2.15Z"/>
        <path class="cls-1" d="M230.33,148.3c-2.66-2.17-5.99-3.13-10.1-2.93-4.09.2-7.3,1.49-9.76,3.99-.2.21-.4.42-.58.64h22.15c-.51-.62-1.08-1.19-1.71-1.7Z"/>
        <path class="cls-1" d="M262.97,143.48c-2.55-1.8-5.48-2.39-8.9-1.78-1.89.33-3.49,1.02-4.84,2.08-1.34,1.05-2.27,2.34-2.76,3.87l-.15.03c-.24-1.44-.48-2.88-.72-4.31-2.35.34-4.71.65-7.08.93.25,1.9.5,3.8.75,5.7h9.49c.9-1.39,2.23-2.24,3.99-2.54,1.88-.33,3.53.06,4.98,1.18.5.39.95.84,1.33,1.36h8.69c-1.07-2.88-2.68-5.04-4.78-6.52Z"/>
        <path class="cls-1" d="M276.82,136.94c-2.3.62-4.61,1.2-6.92,1.76,1.09,3.76,2.17,7.53,3.26,11.3h7.91c-1.42-4.35-2.83-8.71-4.25-13.06ZM294.77,131.45c-2.26.78-4.53,1.52-6.81,2.24-1.58,5.38-3.37,10.83-5.39,16.31h5.8c.92-2.68,1.79-5.35,2.6-8,.06-.02.13-.04.19-.06,1.05,2.68,2.09,5.37,3.14,8.06h8.44c-2.66-6.18-5.31-12.37-7.97-18.55Z"/>
        <path class="cls-1" d="M327.64,126.62c-2.17,1.06-4.34,2.09-6.53,3.1-.83-.81-1.86-1.29-3.06-1.45-1.21-.16-2.47.05-3.8.62-1.79.77-2.9,1.94-3.35,3.56-.45,1.62-.17,3.46.87,5.53,1.05,2.1,2.42,3.51,4.13,4.2,1.71.7,3.54.61,5.45-.25,1.43-.64,2.47-1.45,3.11-2.41.64-.96.83-2.01.57-3.13,2.25-1.05,4.49-2.14,6.71-3.25,1.04,2.38.87,4.78-.56,7.19-1.43,2.41-3.94,4.48-7.5,6.09-4.24,1.93-8.16,2.36-11.62,1.35-3.47-1.02-5.96-3.36-7.58-6.9-1.6-3.5-1.68-6.73-.36-9.65,1.33-2.93,3.85-5.12,7.64-6.72,3.21-1.35,6.2-1.83,9.07-1.43,2.86.41,5.15,1.57,6.82,3.55Z"/>
        <path class="cls-1" d="M340.74,137.55c-4.36-6.64-8.73-13.28-13.09-19.92,2.21-1.11,4.41-2.24,6.59-3.41,1.33,1.87,2.67,3.75,4,5.62,1.65-.9,3.3-1.82,4.94-2.76,2.99-1.71,5.81-2.53,8.53-2.45,2.72.08,4.92,1.06,6.57,3.01,1.64,1.95,2.05,4.08,1.15,6.42-.9,2.33-2.95,4.51-6.15,6.42-4.14,2.47-8.32,4.83-12.54,7.08ZM344.91,121.41c-1.32.75-2.63,1.5-3.96,2.23,1.44,2.02,2.87,4.04,4.31,6.06,1.36-.77,2.72-1.55,4.08-2.34,1.34-.78,2.2-1.69,2.58-2.71.38-1.02.23-1.96-.46-2.84-.68-.87-1.62-1.33-2.82-1.41-1.2-.08-2.44.26-3.74,1.01Z"/>
      </g>
      <path class="cls-2" d="M113.7,150c-1.58,2.27-3.53,3.95-5.9,5.04-3.63,1.67-7.76,1.74-12.22.12-3.28-1.19-5.7-2.93-7.22-5.16h11.44c.56.08,1.11.08,1.66,0h12.24Z"/>
      <path class="cls-1" d="M99.8,150h1.66c-.55.08-1.1.08-1.66,0Z"/>
      <path class="cls-2" d="M128.16,150c-1.57,4.42-3.14,8.84-4.7,13.27-2.63-.68-5.25-1.39-7.87-2.14,1.44-3.71,2.89-7.42,4.33-11.13h8.24Z"/>
      <path class="cls-2" d="M171.96,157.79c-.72,4.42-2.56,7.75-5.65,9.96-3.09,2.21-7.02,3.03-11.66,2.34-4.62-.68-7.96-2.59-9.91-5.61-1.95-3.03-2.23-6.78-.97-11.2.33-1.18.74-2.27,1.23-3.28h8.54c-.92,1.23-1.63,2.83-2.12,4.79-.69,2.72-.65,4.95.15,6.65.79,1.71,2.25,2.73,4.33,3.05,2.09.31,3.88-.21,5.34-1.55,1.46-1.35,2.44-3.38,2.98-6.1.52-2.69.37-4.87-.43-6.55-.05-.1-.1-.2-.16-.29h7.86c.78,2.25.94,4.84.47,7.79Z"/>
      <path class="cls-1" d="M151.57,161.44c-.8-1.7-.84-3.93-.15-6.65.49-1.96,1.2-3.56,2.12-4.79h10.09c.06.09.11.19.16.29.8,1.68.95,3.86.43,6.55-.54,2.72-1.52,4.75-2.98,6.1-1.46,1.34-3.25,1.86-5.34,1.55-2.08-.32-3.54-1.34-4.33-3.05Z"/>
      <path class="cls-2" d="M200.59,160.91c-1.16-1.16-2.68-1.87-4.58-2.15,0-.06,0-.13.01-.19,1.49-.19,2.76-.84,3.78-1.93,1.03-1.09,1.56-2.35,1.61-3.78.05-1.07-.13-2.02-.51-2.86h-14.62c1.37.1,2.74.18,4.1.26,1.26.07,2.21.39,2.85.97.64.57.93,1.36.86,2.38-.07,1.02-.5,1.8-1.3,2.32-.8.51-1.93.74-3.38.67-1.51-.08-3.02-.17-4.54-.27.24-2.11.47-4.22.69-6.33h-7.28c-1.03,7.31-2.06,14.63-3.08,21.94,5.2.42,10.41.69,15.62.84,3.42.09,6.19-.6,8.25-2,2.06-1.4,3.11-3.29,3.19-5.66.05-1.65-.51-3.05-1.67-4.21ZM192.99,167.29c-.89.6-2.15.87-3.77.81-1.86-.07-3.73-.16-5.6-.26.27-2.43.53-4.85.79-7.27,1.68.1,3.36.19,5.04.27,3.48.16,5.14,1.39,4.99,3.79-.07,1.17-.56,2.06-1.45,2.66Z"/>
      <path class="cls-1" d="M189.41,156.6c-1.51-.08-3.02-.17-4.54-.27.24-2.11.47-4.22.69-6.33h.72c1.37.1,2.74.18,4.1.26,1.26.07,2.21.39,2.85.97.64.57.93,1.36.86,2.38-.07,1.02-.5,1.8-1.3,2.32-.8.51-1.93.74-3.38.67Z"/>
      <path class="cls-1" d="M189.22,168.1c-1.86-.07-3.73-.16-5.6-.26.27-2.43.53-4.85.79-7.27,1.68.1,3.36.19,5.04.27,3.48.16,5.14,1.39,4.99,3.79-.07,1.17-.56,2.06-1.45,2.66-.89.6-2.15.87-3.77.81Z"/>
      <path class="cls-2" d="M235.05,157.69c-.34-3.14-1.36-5.69-3.01-7.69h-22.15c-2.09,2.42-3.21,5.57-3.27,9.46-.07,4.3,1.17,7.66,3.84,10.01,2.66,2.35,6.37,3.39,11.01,3.05,4.66-.35,8.25-1.93,10.68-4.59,2.42-2.66,3.35-6.08,2.9-10.24ZM225.99,164.63c-1.07,1.52-2.67,2.38-4.76,2.52-2.1.15-3.77-.48-4.98-1.86-1.21-1.39-1.82-3.4-1.87-6.03-.04-2.59.49-4.64,1.57-6.15,1.07-1.5,2.58-2.3,4.53-2.4,1.93-.11,3.49.52,4.7,1.88,1.21,1.36,1.92,3.31,2.11,5.87.19,2.58-.23,4.64-1.3,6.17Z"/>
      <path class="cls-1" d="M216.25,165.29c-1.21-1.39-1.82-3.4-1.87-6.03-.04-2.59.49-4.64,1.57-6.15,1.07-1.5,2.58-2.3,4.53-2.4,1.93-.11,3.49.52,4.7,1.88,1.21,1.36,1.92,3.31,2.11,5.87.19,2.58-.23,4.64-1.3,6.17-1.07,1.52-2.67,2.38-4.76,2.52-2.1.15-3.77-.48-4.98-1.86Z"/>
      <path class="cls-2" d="M267.53,161.8c-1.59,2.73-4.31,4.54-8.08,5.31-2.17.44-4.14.41-5.9-.08-1.76-.5-3.16-1.4-4.21-2.7-.05.01-.11.01-.16.02.67,4.06,1.34,8.12,2.01,12.18-2.75.49-5.51.94-8.27,1.35-1.22-9.29-2.43-18.59-3.65-27.88h9.49c-.06.08-.12.17-.17.26-.91,1.56-1.2,3.47-.82,5.73.37,2.26,1.26,3.98,2.7,5.14,1.44,1.16,3.18,1.56,5.18,1.18,2.03-.39,3.51-1.39,4.42-2.96.91-1.58,1.09-3.49.59-5.73-.33-1.44-.86-2.65-1.6-3.62h8.69c.22.61.42,1.25.6,1.92,1.02,3.85.78,7.14-.82,9.88Z"/>
      <path class="cls-1" d="M247.77,155.99c-.38-2.26-.09-4.17.82-5.73.05-.09.11-.18.17-.26h10.3c.74.97,1.27,2.18,1.6,3.62.5,2.24.32,4.15-.59,5.73-.91,1.57-2.39,2.57-4.42,2.96-2,.38-3.74-.02-5.18-1.18-1.44-1.16-2.33-2.88-2.7-5.14Z"/>
      <path class="cls-2" d="M288.37,150c-1.2,3.5-2.48,7.02-3.86,10.56-2.55.75-5.11,1.47-7.68,2.16-1.22-4.24-2.45-8.48-3.67-12.72h7.91c.21.63.41,1.26.62,1.89.07-.02.14-.04.2-.06.23-.61.46-1.22.68-1.83h5.8Z"/>
      <path class="cls-1" d="M281.69,151.89c-.21-.63-.41-1.26-.62-1.89h1.5c-.22.61-.45,1.22-.68,1.83-.06.02-.13.04-.2.06Z"/>
      <path class="cls-2" d="M304.42,153.92c-2.5.93-5.02,1.83-7.55,2.7-.86-2.21-1.71-4.42-2.57-6.62h8.44c.56,1.31,1.12,2.61,1.68,3.92Z"/>
      <path class="cls-1" d="M400,150v151.27H.15v-151.27h88.21c1.52,2.23,3.94,3.97,7.22,5.16,4.46,1.62,8.59,1.55,12.22-.12,2.37-1.09,4.32-2.77,5.9-5.04h6.22c-1.44,3.71-2.89,7.42-4.33,11.13,2.62.75,5.24,1.46,7.87,2.14,1.56-4.43,3.13-8.85,4.7-13.27h16.84c-.49,1.01-.9,2.1-1.23,3.28-1.26,4.42-.98,8.17.97,11.2,1.95,3.02,5.29,4.93,9.91,5.61,4.64.69,8.57-.13,11.66-2.34,3.09-2.21,4.93-5.54,5.65-9.96.47-2.95.31-5.54-.47-7.79h6.79c-1.03,7.31-2.06,14.63-3.08,21.94,5.2.42,10.41.69,15.62.84,3.42.09,6.19-.6,8.25-2,2.06-1.4,3.11-3.29,3.19-5.66.05-1.65-.51-3.05-1.67-4.21-1.16-1.16-2.68-1.87-4.58-2.15,0-.06,0-.13.01-.19,1.49-.19,2.76-.84,3.78-1.93,1.03-1.09,1.56-2.35,1.61-3.78.05-1.07-.13-2.02-.51-2.86h8.99c-2.09,2.42-3.21,5.57-3.27,9.46-.07,4.3,1.17,7.66,3.84,10.01,2.66,2.35,6.37,3.39,11.01,3.05,4.66-.35,8.25-1.93,10.68-4.59,2.42-2.66,3.35-6.08,2.9-10.24-.34-3.14-1.36-5.69-3.01-7.69h7.23c1.22,9.29,2.43,18.59,3.65,27.88,2.76-.41,5.52-.86,8.27-1.35-.67-4.06-1.34-8.12-2.01-12.18.05-.01.11-.01.16-.02,1.05,1.3,2.45,2.2,4.21,2.7,1.76.49,3.73.52,5.9.08,3.77-.77,6.49-2.58,8.08-5.31,1.6-2.74,1.84-6.03.82-9.88-.18-.67-.38-1.31-.6-1.92h5.41c1.22,4.24,2.45,8.48,3.67,12.72,2.57-.69,5.13-1.41,7.68-2.16,1.38-3.54,2.66-7.06,3.86-10.56h5.93c.86,2.2,1.71,4.41,2.57,6.62,2.53-.87,5.05-1.77,7.55-2.7-.56-1.31-1.12-2.61-1.68-3.92h97.26Z"/>
    </g>
  </g>
</svg>