<?xml version="1.0" encoding="UTF-8"?>
<svg id="Layer_2" data-name="Layer 2" xmlns="http://www.w3.org/2000/svg" viewBox="0 0 44 44">
  <defs>
    <style>
      .cls-1 {
        fill: #000;
      }

      .cls-1, .cls-2 {
        stroke-width: 0px;
      }

      .cls-2 {
        fill: none;
      }
    </style>
  </defs>
  <g id="completed">
    <g>
      <rect class="cls-2" width="44" height="44"/>
      <g>
        <g>
          <path class="cls-1" d="M32.5,17.81v3.15c0,.47-.4.47-.87.47h-8.59c-.23,0-.43-.2-.43-.43v-8.6c0-.47-.03-.83.43-.87h.46c7.85.17,8.76,2.71,9,6.28Z"/>
          <path class="cls-1" d="M32.5,23.19v3c-.23,3.56-1.14,6.07-8.84,6.28,0,0-.01-.01-.01,0h-.71c-.41-.09-.33-.44-.33-.85v-8.54c0-.25.2-.43.43-.43h8.59c.47,0,.87.05.87.54Z"/>
        </g>
        <g>
          <path class="cls-1" d="M21.38,12.4v8.6c0,.23-.2.43-.43.43h-8.59c-.49,0-.87,0-.87-.47v-3.15c.23-3.57,1.15-6.11,9-6.28h.43c.43.04.46.4.46.87Z"/>
          <path class="cls-1" d="M21.38,23.08v8.54c0,.41,0,.85-.36.85h-.69c-7.7-.21-8.6-2.72-8.84-6.28v-3c0-.49.37-.54.87-.54h8.59c.23,0,.43.19.43.43Z"/>
        </g>
      </g>
    </g>
  </g>
</svg>