<?xml version="1.0" encoding="UTF-8"?>
<svg id="Layer_2" data-name="Layer 2" xmlns="http://www.w3.org/2000/svg" viewBox="0 0 44 44">
  <defs>
    <style>
      .cls-1 {
        fill: #000;
      }

      .cls-1, .cls-2 {
        stroke-width: 0px;
      }

      .cls-2 {
        fill: none;
      }
    </style>
  </defs>
  <g id="completed">
    <g>
      <rect class="cls-2" width="44" height="44"/>
      <path class="cls-1" d="M31.71,31.7c-.93.93-1.6,1.24-1.87.97l-6.84-6.84c-.55-.55-1.45-.55-2,0l-6.84,6.84c-.27.27-.94-.04-1.86-.97-.93-.92-1.24-1.59-.97-1.86l6.84-6.84c.55-.55.55-1.45,0-2l-6.84-6.84c-.24-.24-.01-.81.72-1.61.08-.08.16-.17.25-.26.09-.09.18-.17.26-.25.79-.72,1.36-.95,1.6-.71l6.84,6.84c.55.55,1.45.55,2,0l6.84-6.84c.24-.24.81,0,1.61.71l.51.51c.72.8.95,1.37.71,1.61l-6.84,6.84c-.55.55-.55,1.45,0,2l6.84,6.84c.27.27-.04.94-.96,1.86Z"/>
    </g>
  </g>
</svg>