<?xml version="1.0" encoding="UTF-8"?>
<svg id="Layer_2" data-name="Layer 2" xmlns="http://www.w3.org/2000/svg" viewBox="0 0 44 44">
  <defs>
    <style>
      .cls-1 {
        fill: #000;
      }

      .cls-1, .cls-2 {
        stroke-width: 0px;
      }

      .cls-2 {
        fill: none;
      }
    </style>
  </defs>
  <g id="form">
    <rect class="cls-2" width="44" height="44"/>
  </g>
  <g id="object">
    <path class="cls-1" d="M19.32,4.71C9.78,6.18,3.23,15.13,4.71,24.68c1.48,9.55,10.43,16.09,19.97,14.62s16.09-10.43,14.62-19.97c-1.48-9.55-10.43-16.09-19.97-14.62ZM27.5,17.12l-1.95,11.95c-.18,1.1-1.62,1.41-2.23.47l-1.98-3.07c-.78-1.22-1.98-2.1-3.38-2.47l-3.53-.96c-1.08-.3-1.22-1.76-.23-2.27l10.8-5.48c1.28-.64,2.74.43,2.51,1.84Z"/>
  </g>
</svg>