<?xml version="1.0" encoding="UTF-8"?>
<svg id="Layer_2" data-name="Layer 2" xmlns="http://www.w3.org/2000/svg" viewBox="0 0 259.85 107.4">
  <defs>
    <style>
      .cls-1 {
        fill: #231f20;
        stroke-width: 0px;
      }
    </style>
  </defs>
  <g id="Layer_1-2" data-name="Layer 1">
    <g>
      <path class="cls-1" d="M32.51,81.5c-1.58.2-2.73,1.11-3.63,2.32-.85,1.16-1.63,2.37-2.37,3.6-.68,1.12-1.59,1.58-2.92,1.68-5.13.38-10.26.69-15.41.6-2.36-.04-4.73-.14-7.09-.23-.44-.02-.97.02-1.08-.58-.07-.38.43-.76,1.04-.85,3.5-.49,7.02-.85,10.5-1.5,3.2-.6,6.33-1.56,9.52-2.25,2.17-.46,3.77-1.84,5.52-3.02,1.61-1.09,3.32-1.96,5.22-2.42,1.6-.39,3.11-.25,4.53.71,1.74,1.17,3.5,2.31,5.32,3.34,2.2,1.25,4.68,1.64,7.14,1.95,2.92.37,5.84.7,8.76.98,3.3.32,6.6.59,9.9.83,9.77.73,19.56.88,29.35.67,6.35-.14,12.71-.39,19.05-.7,5.57-.27,11.13-.65,16.69-1.03,4.84-.34,9.68-.73,14.51-1.13,6.21-.51,12.42-1.02,18.62-1.6,3.4-.32,6.79-.74,10.17-1.16,3.16-.4,6.32-.82,9.46-1.32,3.04-.48,6.07-1.05,9.1-1.63,2.5-.48,5-.99,7.47-1.57,2.66-.63,5.31-1.3,7.93-2.06,3.27-.96,6.54-1.93,9.73-3.08,3.74-1.35,7.45-2.82,11.1-4.4,9.02-3.91,17.27-9.14,25.26-14.82,1.11-.79,2.2-1.59,3.3-2.39.17-.13.36-.23.62-.25-.28.25-.56.5-.85.74-7.58,6.33-15.72,11.85-24.51,16.38-5.21,2.69-10.54,5.09-16.1,6.94-4.24,1.42-8.52,2.72-12.82,3.98-3.52,1.04-7.11,1.86-10.62,2.93-1.62.49-3.13,1.33-4.69,2.02-.81.36-.99,1.11-1.08,1.88-.06.49-.05.99-.09,1.48-.34,4.16-1.75,7.93-4.22,11.28-.51.69-1.3,1.17-1.96,1.75-.08.06-.18.13-.27.13-.37,0-.74-.03-1.11-.05.08-.35.07-.77.26-1.05,1.08-1.62,1.85-3.34,1.95-5.31.22-4.03-2.26-6.89-6.29-7.03-1.97-.07-3.94.15-5.91.28-5.52.34-11.04.69-16.56,1.07-3.65.25-7.3.56-10.95.85-7.01.57-14.02,1.14-21.03,1.73-6.27.52-12.54,1.1-18.81,1.6-8.47.67-16.93,1.36-25.41,1.92-5.77.38-11.55.52-17.32.82-4.11.21-8.21.52-12.22,1.5-1.15.28-2.25.77-3.34,1.23-.38.16-.73.47-1.02.78-.46.48-.58,1.05-.3,1.7.55,1.26,1.06,2.54,1.09,3.95.04,1.6-.2,2.12-1.59,2.6-1.2.42-2.41.78-3.64,1.08-.29.07-.66-.17-.99-.26.13-.39.16-.87.41-1.14.32-.35.8-.58,1.25-.76.81-.34,1.28-.97,1.56-1.74.27-.74.1-1.45-.51-1.97-.78-.66-1.58-1.32-2.43-1.89-1.89-1.26-2.67-3.11-2.68-5.27,0-2.01.24-4.02.35-6.03.06-1.15.12-2.3.09-3.45-.02-.74-.32-1.41-.95-2.09,0,.29-.03.43,0,.55.42,1.62.22,3.26-.1,4.84-.58,2.91-1.08,5.81-1.13,8.79-.04,2.38-1.39,3.86-3.52,4.73-1.17.47-2.36.77-3.59.32-1.55-.56-2.29-1.86-2.85-3.3-.66-1.7-.52-3.45-.2-5.17.61-3.25,1.86-6.26,3.77-8.97.93-1.33,2.07-2.43,3.59-3.08Z"/>
      <path class="cls-1" d="M114.17,72.76c2,2.26,4.46,3.59,7.15,4.58l-.05.16c-.38-.09-.78-.14-1.15-.27-2.48-.86-4.85-1.95-6.8-3.76-.35-.32-.66-.21-1.02-.09-1.83.57-3.69,1-5.61,1.05-.61.02-1.23-.07-1.83-.2-1.1-.23-1.78-1.14-1.8-2.35-.02-1.46.51-2.78,1.06-4.09.33-.78.68-1.54,1.07-2.29.18-.35.17-.59-.11-.87-1.36-1.36-2.53-2.87-3.36-4.62-.16-.34-.33-.35-.67-.19-6.1,2.96-12.21,5.89-18.31,8.84-6.86,3.32-13.76,6.55-20.87,9.3-4.92,1.9-9.92,3.57-14.89,5.34-.13.05-.28.07-.42.1l-.04-.15c1.42-.56,2.87-1.08,4.27-1.69,5.06-2.21,10.17-4.32,15.14-6.72,9.11-4.42,18.13-9.02,27.19-13.55,2.37-1.18,4.74-2.36,7.12-3.53.32-.15.5-.28.42-.69-1.39-6.81,1.36-11.9,6.67-15.87,2.96-2.21,6.33-3.52,9.93-4.3,4.12-.88,8.25-.95,12.38-.17,5.44,1.04,10.28,3.25,14.04,7.48,4.69,5.28,5,12.67.75,18.32-2.62,3.48-6.08,5.79-10.11,7.3-4.82,1.81-9.78,2.26-14.87,1.53-.53-.08-1.05-.19-1.58-.26-.22-.03-.47-.04-.66.06-.49.25-.94.58-1.43.85-.47.25-.96.46-1.57.75ZM111.24,65.41c.2-.38.29-.56.38-.74,1.17-2.13,3.2-2.8,5.39-1.75,2.06.98,3.22,3.21,2.56,5.17-.22.67-.01.76.52.86,4.86.94,9.67.79,14.34-.95,3.46-1.29,6.2-3.48,7.7-6.95,1.56-3.6,1.56-7.27.26-10.94-2.49-7.04-9.34-11.95-16.4-12.67-2.83-.29-5.62-.06-8.38.67-3.48.93-6.6,2.52-9.17,5.06-3.32,3.29-5.02,7.21-4.45,11.97.1.8.1.75.88.5,1.16-.39,2.34-.8,3.54-1,1.18-.2,1.8.45,1.86,1.66,0,.2,0,.41-.03.62-.22,1.92-1.01,3.67-1.66,5.47-.09.24-.16.67-.04.78.84.77,1.74,1.47,2.69,2.25ZM107.03,66.47c-.53,1.3-.98,2.61-1.04,4.02-.07,1.66.75,2.43,2.4,2.13.98-.17,1.92-.54,2.89-.81.43-.12.41-.32.26-.68-.26-.64-.43-1.32-.68-1.97-.09-.23-.24-.5-.43-.62-1.09-.69-2.2-1.34-3.41-2.07ZM112.34,66.11c1.46.64,2.87,1.26,4.3,1.86.09.04.28-.05.37-.14.95-.91.57-2.91-.64-3.41-1.39-.58-3.27.14-4.02,1.7ZM107.11,61.66c.5-1.17,1.1-2.16,1.11-3.35,0-.52-.28-.88-.77-.83-.78.09-1.55.31-2.32.5-.08.02-.19.28-.15.38.51,1.17,1.16,2.25,2.13,3.3ZM112.41,69.48s-.1.09-.15.13c.17.38.33.77.54,1.14.05.09.3.18.4.13.34-.16.65-.38,1.09-.66-.73-.28-1.3-.51-1.88-.73Z"/>
      <path class="cls-1" d="M158.52,32.55c-.1,6.99-.19,13.98-.29,20.98,0,.14-.03.29,0,.43.08.5.57.74.91.44,4.23-3.68,8.87-6.79,13.65-9.71,4.81-2.94,9.71-5.69,14.92-7.87,1.17-.49,2.37-.94,3.59-1.29,1.46-.42,2.94-.13,4.41.07.52.07,1.04.23,1.55.4.19.06.43.28.44.44.01.15-.22.4-.4.47-1.15.43-2.29,1.06-3.48,1.18-5.67.59-10.68,3.01-15.64,5.54-5.53,2.82-10.85,6.01-15.85,9.72-.71.53-1.38,1.11-2.08,1.64-.41.31-.39.53.05.76,2.68,1.38,5.29,2.92,8.06,4.1,3.62,1.55,7.34,2.88,11.06,4.18,2.64.92,5.37,1.49,8.16,1.84,1.26.16,2.49.66,3.72,1.05.21.07.36.34.54.52-.2.15-.38.39-.61.45-1.87.5-3.75.68-5.65.11-6.21-1.85-12.26-4.09-18.12-6.86-2.84-1.34-5.64-2.78-8.17-4.67-.49-.36-1.07.07-1.12.86-.08,1.27-.1,2.55-.22,3.82-.2,2.12-.46,4.25-.73,6.36-.04.31-.3.59-.46.89-.27-.2-.59-.36-.81-.61-.82-.97-1.16-2.17-1.4-3.38-.76-3.89-.68-7.82-.34-11.74.37-4.18.92-8.34,1.25-12.52.57-7.08.75-14.17.57-21.27-.11-4.36-.32-8.71-.56-13.06-.09-1.53-.41-3.05-.61-4.58-.03-.2-.08-.45.02-.6.17-.26.4-.57.66-.64.16-.04.56.28.63.51.39,1.19.79,2.38,1.03,3.6,1.31,6.54,1.09,13.18,1.2,19.79.05,2.88,0,5.76,0,8.64.04,0,.08,0,.11,0Z"/>
      <path class="cls-1" d="M53.79,61.91c-.07.09-.12.2-.2.28-3,2.75-6.15,5.27-9.94,6.87-4.06,1.71-8.31,2.24-12.67,2.09-4.6-.15-9.01-1.07-13.07-3.33-4.37-2.44-7.64-5.89-9.01-10.78-1.75-6.21-.16-11.62,4.48-16.09,2.84-2.74,6.32-4.32,10.11-5.23,4.68-1.13,9.4-1.33,14.14-.5,4.42.78,8.5,2.35,11.95,5.32.49.43.95.91,1.35,1.43.42.54.22,1.06-.46,1.08-.7.03-1.46-.04-2.11-.27-1.06-.37-2.12-.81-3.07-1.4-3.2-2.01-6.67-3.24-10.4-3.75-4.4-.61-8.74-.36-13.02.8-3.09.84-5.91,2.24-8.31,4.4-4.16,3.75-5.05,8.86-2.43,13.87,1.96,3.74,4.95,6.49,8.55,8.58,6.12,3.57,12.7,4.58,19.62,3.21,3.91-.77,7.48-2.45,10.87-4.5.99-.59,1.96-1.21,2.94-1.81.2-.12.41-.24.61-.35.02.03.05.06.07.09Z"/>
      <path class="cls-1" d="M65.2,48.18c1.03-.91,1.95-1.82,2.96-2.62,2.81-2.23,6.08-3.57,9.45-4.68,2.15-.71,4.34-1.3,6.62-1.35,2.42-.06,4.85-.02,7.23.55.26.06.48.32.72.48-.17.22-.28.52-.5.65-.93.57-1.86,1.13-2.83,1.61-.81.4-1.68.21-2.54.04-2.73-.53-5.44-.39-8.14.21-3.64.81-6.99,2.28-9.92,4.6-1.08.85-2.03,1.86-3.01,2.82-.14.14-.21.4-.22.6-.27,4.1-.51,8.21-.8,12.31-.09,1.23-.26,2.45-.43,3.67-.08.6-.57.8-1,.36-.37-.38-.74-.9-.81-1.4-.23-1.68-.45-3.39-.45-5.08,0-3.38.5-6.72,1.07-10.05.73-4.18.65-8.35-.25-12.51-.05-.24-.11-.48-.14-.73-.09-.64.15-1.11.64-1.24.58-.16.95.17,1.11.63.3.87.65,1.75.72,2.65.22,2.68.31,5.37.46,8.06,0,.12.03.23.05.41Z"/>
      <path class="cls-1" d="M214.62,48.61c-.1,1.94-.19,3.89-.32,5.84-.23,3.53-.47,7.06-.71,10.58-.05.68-.14,1.35-.25,2.02-.03.2-.17.52-.29.54-.23.04-.54-.05-.72-.2-.65-.56-.78-1.38-.9-2.17-.39-2.63-.2-5.26.09-7.87.26-2.35.7-4.67.97-7.02.33-2.75.24-5.5-.25-8.23-.12-.65-.25-1.29-.37-1.94-.1-.56.09-1.01.65-1.17.57-.16.88.29.99.71.31,1.12.64,2.26.76,3.41.2,1.82.23,3.65.34,5.5Z"/>
      <path class="cls-1" d="M22.1,92.73c-1.23-.3-2.46-.59-3.68-.9-.19-.05-.38-.16-.54-.29-.11-.09-.23-.28-.2-.4.02-.12.2-.27.33-.29.42-.08.85-.11,1.28-.15,1.31-.12,2.61-.25,3.92-.37.26-.02.54-.06.8,0,.14.03.34.24.35.37.06,1.33-.44,1.83-1.79,1.84-.14,0-.29,0-.43,0-.01.05-.03.11-.04.16Z"/>
      <path class="cls-1" d="M212.91,31.21c.78,0,1.19.62.88,1.43-.45,1.19-1.31,1.99-2.56,2.28-.32.07-.85-.06-1.03-.29-.2-.26-.25-.78-.14-1.12.4-1.26,1.77-2.31,2.85-2.3Z"/>
    </g>
  </g>
</svg>