<?xml version="1.0" encoding="UTF-8"?>
<svg id="Layer_2" data-name="Layer 2" xmlns="http://www.w3.org/2000/svg" viewBox="0 0 44 44">
  <defs>
    <style>
      .cls-1 {
        fill: #000;
      }

      .cls-1, .cls-2 {
        stroke-width: 0px;
      }

      .cls-2 {
        fill: none;
      }
    </style>
  </defs>
  <g id="completed">
    <g>
      <rect class="cls-2" width="44" height="44"/>
      <path class="cls-1" d="M22,9.89c-10.95,0-14,0-14,14,0,3.27.16,5.76.56,7.68.16.8,1.16,1.09,1.74.51l6.52-6.52c.94-.92,2.44-.92,3.36,0l4.43,4.43c.4.4,1.05.4,1.46,0l1.02-1.02c.68-.68,1.76-.68,2.42,0l4,4c.55.55,1.51.32,1.72-.44.56-2.02.79-4.81.79-8.65,0-14-3.05-14-14-14ZM25.48,21.35c-1.45,0-2.62-1.19-2.62-2.64s1.17-2.64,2.62-2.64,2.64,1.19,2.64,2.64-1.17,2.64-2.64,2.64Z"/>
    </g>
  </g>
</svg>