<?xml version="1.0" encoding="UTF-8"?>
<svg id="Layer_2" data-name="Layer 2" xmlns="http://www.w3.org/2000/svg" viewBox="0 0 44 44">
  <defs>
    <style>
      .cls-1 {
        fill: #000;
      }

      .cls-1, .cls-2 {
        stroke-width: 0px;
      }

      .cls-2 {
        fill: none;
      }
    </style>
  </defs>
  <g id="completed">
    <g>
      <rect class="cls-2" width="44" height="44"/>
      <g>
        <rect class="cls-1" x="20.03" y="15.14" width="3.84" height="13.83" rx="1.92" ry="1.92" transform="translate(22.02 -9.06) rotate(45)"/>
        <g>
          <path class="cls-1" d="M30.59,23.43l-1.12,1.12c-.37.37-.69.25-1.83-.89s-1.26-1.46-.89-1.83l1.12-1.12c1.27-1.27,1.27-3.33,0-4.59s-3.33-1.27-4.59,0l-4.25,4.25c-.37.37-.68.26-1.83-.89s-1.26-1.46-.89-1.83l4.25-4.25c2.77-2.77,7.25-2.77,10.02,0s2.77,7.25,0,10.02Z"/>
          <path class="cls-1" d="M27.59,26.43l-4.16,4.16c-1.38,1.38-3.2,2.08-5.01,2.08s-3.63-.7-5.01-2.08c-2.77-2.77-2.77-7.25,0-10.02l1.03-1.03c.37-.37.69-.25,1.83.89s1.26,1.46.89,1.83l-1.03,1.03c-1.27,1.27-1.27,3.33,0,4.59s3.33,1.27,4.59,0l4.16-4.16c.37-.37.68-.26,1.83.89s1.26,1.46.89,1.83Z"/>
        </g>
      </g>
    </g>
  </g>
</svg>