<?xml version="1.0" encoding="UTF-8"?>
<svg id="Layer_2" data-name="Layer 2" xmlns="http://www.w3.org/2000/svg" viewBox="0 0 44 44">
  <defs>
    <style>
      .cls-1 {
        fill: #000;
      }

      .cls-1, .cls-2 {
        stroke-width: 0px;
      }

      .cls-2 {
        fill: none;
      }
    </style>
  </defs>
  <g id="completed">
    <g>
      <rect class="cls-2" width="44" height="44"/>
      <path class="cls-1" d="M33.48,21.99c0,2.01-1.63,3.65-3.64,3.65-.84,0-1.61-.28-2.22-.76l-8.21,4.8c.02.17.03.34.03.51,0,2.01-1.63,3.64-3.64,3.64s-3.64-1.63-3.64-3.64,1.63-3.65,3.64-3.65c.82,0,1.58.27,2.19.74l8.24-4.81c-.02-.16-.03-.32-.03-.48,0-.34.04-.68.14-1l-5.11-4.08c-.55.34-1.17.52-1.86.52-2.01,0-3.64-1.63-3.64-3.66s1.63-3.64,3.64-3.64,3.65,1.63,3.65,3.64c0,.31-.05.62-.12.91l5.18,4.12c.52-.29,1.12-.46,1.76-.46,2.01,0,3.64,1.63,3.64,3.65Z"/>
    </g>
  </g>
</svg>