<?xml version="1.0" encoding="UTF-8"?>
<svg id="Layer_2" data-name="Layer 2" xmlns="http://www.w3.org/2000/svg" viewBox="0 0 44 44">
  <defs>
    <style>
      .cls-1 {
        fill: #000;
      }

      .cls-1, .cls-2 {
        stroke-width: 0px;
      }

      .cls-2 {
        fill: none;
      }
    </style>
  </defs>
  <g id="completed">
    <g>
      <rect class="cls-2" width="44" height="44"/>
      <g>
        <circle class="cls-1" cx="29.26" cy="16.96" r="4.06"/>
        <path class="cls-1" d="M35.79,28.23c0,3.61-2.92,2.96-6.53,2.96-.13,0-.26,0-.38,0,.05-.36.08-.75.08-1.18,0-2.89-1.24-5.49-3.21-7.3,1.01-.65,2.21-1.02,3.51-1.02,3.61,0,6.53,2.92,6.53,6.53Z"/>
      </g>
      <g>
        <path class="cls-1" d="M27.56,30.02c0,.45-.03.85-.1,1.2-.06.33-.15.61-.27.87s-.26.49-.43.68c-.87.98-2.36,1.16-4.21,1.16-1.06,0-2.24-.06-3.49-.06s-2.42.06-3.49.06c-1.84,0-3.34-.18-4.2-1.16-.09-.09-.17-.2-.24-.31-.37-.57-.57-1.36-.57-2.44,0-4.69,3.81-8.5,8.5-8.5,2.14,0,4.09.79,5.58,2.09,1.79,1.56,2.92,3.85,2.92,6.41Z"/>
        <circle class="cls-1" cx="19.06" cy="15.36" r="5.28"/>
      </g>
    </g>
  </g>
</svg>