<?xml version="1.0" encoding="UTF-8"?>
<svg id="Layer_2" data-name="Layer 2" xmlns="http://www.w3.org/2000/svg" viewBox="0 0 44 44">
  <defs>
    <style>
      .cls-1 {
        fill: #000;
      }

      .cls-1, .cls-2 {
        stroke-width: 0px;
      }

      .cls-2 {
        fill: none;
      }
    </style>
  </defs>
  <g id="completed">
    <g>
      <rect class="cls-2" width="44" height="44"/>
      <path class="cls-1" d="M33.23,17.43v.05c0,2.8-1.7,5.39-4.35,6.29-1.94.66-3.83.47-5.35-.33l-9.1,9.09-2.95-2.95,9.09-9.1c-.47-.9-.73-1.92-.73-3,0-3.67,2.96-6.67,6.62-6.7.01,1.39.02,2.78.05,4.18-1.6.01-2.86,1.56-2.38,3.24.25.88,1.02,1.57,1.92,1.74,1.61.3,3-.91,3.01-2.45,1.39-.02,2.79-.04,4.18-.06Z"/>
    </g>
  </g>
</svg>