<?xml version="1.0" encoding="UTF-8"?>
<svg id="Layer_2" data-name="Layer 2" xmlns="http://www.w3.org/2000/svg" viewBox="0 0 44 44">
  <defs>
    <style>
      .cls-1 {
        fill: #000;
      }

      .cls-1, .cls-2 {
        stroke-width: 0px;
      }

      .cls-2 {
        fill: none;
      }
    </style>
  </defs>
  <g id="completed">
    <g>
      <rect class="cls-2" width="44" height="44"/>
      <path class="cls-1" d="M22,11.24c-8.85,0-11.31,0-11.31,11.31,0,2.63.13,4.64.45,6.19.13.66.94.9,1.42.43l5.27-5.26c.75-.74,1.95-.74,2.7,0l.88.88c.33.33.86.33,1.18,0l.88-.88c.75-.75,1.95-.75,2.7,0l5.27,5.26c.48.47,1.28.23,1.42-.43.31-1.55.45-3.56.45-6.19,0-11.31-2.46-11.31-11.31-11.31ZM22,20.64c-1.56,0-2.83-1.28-2.83-2.83s1.28-2.82,2.83-2.82,2.82,1.26,2.82,2.82-1.26,2.83-2.82,2.83Z"/>
    </g>
  </g>
</svg>