<?xml version="1.0" encoding="UTF-8"?>
<svg id="Layer_2" data-name="Layer 2" xmlns="http://www.w3.org/2000/svg" viewBox="0 0 44 44">
  <defs>
    <style>
      .cls-1 {
        fill: #000;
      }

      .cls-1, .cls-2 {
        stroke-width: 0px;
      }

      .cls-2 {
        fill: none;
      }
    </style>
  </defs>
  <g id="completed">
    <g>
      <rect class="cls-2" width="44" height="44"/>
      <path class="cls-1" d="M22.36,29.68h-8.77v-15.4h8.77c.52,0,.81-.57.81-2.06s-.29-2.06-.81-2.06h-11.32c-1.32,0-1.57,2.12-1.57,11.83s.25,11.83,1.57,11.83h11.32c.52,0,.81-.57.81-2.07s-.29-2.07-.81-2.07Z"/>
      <path class="cls-1" d="M34.53,22l-6.85,6.85s-.01.03-.03.04c-.01.01-.04.03-.06.04-.28.22-.72.1-1.45-.53-.07-.07-.14-.14-.22-.21h0l-.28-.28c-.11-.1-.18-.17-.26-.26-.79-.85-.97-1.38-.72-1.68l.08-.08,1.8-1.8h-8.14c-.49,0-.75-.57-.75-2.09s.26-2.09.75-2.09h8.14l-1.82-1.82c-.31-.31-.15-.82.68-1.73.08-.1.17-.18.26-.28s.18-.18.28-.26c.9-.85,1.42-1,1.73-.68l6.86,6.86Z"/>
    </g>
  </g>
</svg>