<?xml version="1.0" encoding="UTF-8"?>
<svg id="Layer_2" data-name="Layer 2" xmlns="http://www.w3.org/2000/svg" viewBox="0 0 44 44">
  <defs>
    <style>
      .cls-1 {
        fill: #000;
      }

      .cls-1, .cls-2 {
        stroke-width: 0px;
      }

      .cls-2 {
        fill: none;
      }
    </style>
  </defs>
  <g id="completed">
    <g>
      <rect class="cls-2" width="44" height="44"/>
      <path class="cls-1" d="M22,10.71c-11.2,0-11.11,5.15-11.11,11.29s-.08,11.29,11.11,11.29,11.11-5.15,11.11-11.29.08-11.29-11.11-11.29ZM16.28,19.77l-.08-1.81c-.01-.23-.12-.46-.28-.62l-1.28-1.28c-.32-.3-.12-.84.33-.87l1.8-.09c.23-.01.46-.11.62-.27l1.28-1.29c.32-.32.85-.11.88.34l.08,1.8c.01.23.12.46.28.62l1.28,1.28c.32.32.12.85-.33.88l-1.8.08c-.23.01-.46.12-.62.28l-1.28,1.28c-.32.32-.85.11-.88-.33ZM28.74,26.66l-2.74.54c-.37.07-.69.29-.9.62l-1.5,2.35c-.47.73-1.59.51-1.75-.34l-.54-2.74c-.07-.36-.29-.69-.61-.9l-2.35-1.5c-.74-.47-.53-1.59.33-1.75l2.74-.54c.37-.07.7-.29.9-.61l1.5-2.35c.47-.74,1.59-.51,1.75.33l.54,2.74c.07.37.29.7.61.9l2.35,1.51c.74.46.53,1.58-.33,1.74Z"/>
    </g>
  </g>
</svg>