<?xml version="1.0" encoding="UTF-8"?>
<svg id="Layer_2" data-name="Layer 2" xmlns="http://www.w3.org/2000/svg" viewBox="0 0 44 44">
  <defs>
    <style>
      .cls-1 {
        fill: #000;
      }

      .cls-1, .cls-2 {
        stroke-width: 0px;
      }

      .cls-2 {
        fill: none;
      }
    </style>
  </defs>
  <g id="completed">
    <g>
      <rect class="cls-2" width="44" height="44"/>
      <path class="cls-1" d="M25.63,23.09c2.82-3.63,2.09-6.98-.77-9.83-1.62-1.62-3.37-2.55-5.27-2.55s-3.84.91-5.9,2.98c-4.16,4.16-3.63,7.97-.42,11.18,1.6,1.62,3.37,2.55,5.26,2.55,1.46,0,2.99-.55,4.58-1.77l7.42,7.42,2.54-2.54-7.43-7.43ZM15.43,22.68c-1.91-1.91-2.58-3.81.44-6.81.94-.95,2.36-2.08,3.73-2.08.95,0,1.99.55,3.08,1.64,1.92,1.92,2.59,3.82-.42,6.83-.94.95-2.36,2.08-3.73,2.08-.95,0-1.99-.55-3.09-1.66Z"/>
    </g>
  </g>
</svg>