<?xml version="1.0" encoding="UTF-8"?>
<svg id="Layer_2" data-name="Layer 2" xmlns="http://www.w3.org/2000/svg" viewBox="0 0 44 44">
  <defs>
    <style>
      .cls-1 {
        fill: #000;
      }

      .cls-1, .cls-2 {
        stroke-width: 0px;
      }

      .cls-2 {
        fill: none;
      }
    </style>
  </defs>
  <g id="completed">
    <g>
      <rect class="cls-2" width="44" height="44"/>
      <path class="cls-1" d="M22,8.84c-9.14,0-14,5.42-14,13.16s4.86,13.16,14,13.16,14-5.42,14-13.16-4.86-13.16-14-13.16ZM23.41,30.21c0,.07-.1.18-.52.34-.06.01-.12.04-.19.07-.15.06-.31.12-.5.18-.07.01-.15.06-.22.07-1.11.37-1.44.41-1.53.32,0-.01-.01-.06-.01-.07-.37-1.06-.59-2.02-.65-2.92t-.01-.03v-.03c.01-.1.22-.19,1.11-.28.12,0,.27-.01.43-.03.29-.01.55-.03.74-.03h.01c.53-.01.74.03.8.07.03.01.03.03.04.04v.09c.07.65.24,1.34.52,2.17v.03ZM28.23,19.45c-.34,2.86-1.95,3.92-3.11,4.67-.32.22-.63.43-.88.63-.62.55-1.15,1.08-1.33,2h0c0,.13-.21.19-1.21.1-.1-.01-.22-.04-.35-.04-.16-.03-.31-.04-.44-.06-.91-.13-1.09-.22-1.09-.32h0v-.04c.34-2.21,1.69-3.4,2.37-3.98.41-.37.84-.65,1.22-.88,1-.66,1.53-1.03,1.71-2.46.03-.18.03-.34.03-.5,0-2.03-1.75-2.46-3.23-2.46-2.62,0-2.99,1.53-3.02,1.71-.04.22-.06.44-.06.66,0,.41.07.78.15,1.13v.09c0,.09-.13.18-.74.32-.07,0-.13.03-.22.04l-.31.06c-.07,0-.15.03-.24.04-.24.03-.44.07-.62.1-.28.03-.47.04-.62.04-.25,0-.32-.04-.34-.12-.07-.43-.19-1.03-.19-1.72,0-.41.04-.83.12-1.24.38-2.12,2.43-4.26,6.09-4.26,3.86,0,6.37,2.2,6.37,5.59,0,.28-.03.57-.06.88Z"/>
    </g>
  </g>
</svg>