<?xml version="1.0" encoding="UTF-8"?>
<svg id="Layer_2" data-name="Layer 2" xmlns="http://www.w3.org/2000/svg" viewBox="0 0 44 44">
  <defs>
    <style>
      .cls-1 {
        fill: #000;
      }

      .cls-1, .cls-2 {
        stroke-width: 0px;
      }

      .cls-2 {
        fill: none;
      }
    </style>
  </defs>
  <g id="completed">
    <g>
      <rect class="cls-2" width="44" height="44"/>
      <path class="cls-1" d="M32.24,20.27l-.87-.56c-.97-.63-1.46-1.78-1.25-2.91l.19-1.01c.26-1.35-.94-2.53-2.29-2.24l-1.01.21c-1.13.24-2.28-.22-2.93-1.18l-.58-.85c-.78-1.14-2.47-1.12-3.21.03l-.56.87c-.63.97-1.78,1.46-2.91,1.25l-1.01-.19c-1.35-.26-2.53.94-2.24,2.29l.21,1.01c.24,1.13-.22,2.28-1.18,2.93l-.85.58c-1.14.78-1.12,2.47.03,3.21l.87.56c.97.63,1.46,1.78,1.25,2.91l-.19,1.01c-.26,1.35.94,2.53,2.29,2.24l1.01-.21c1.13-.24,2.28.22,2.93,1.18l.58.85c.78,1.14,2.47,1.12,3.21-.03l.56-.87c.63-.97,1.78-1.46,2.91-1.25l1.01.19c1.35.26,2.53-.94,2.24-2.29l-.21-1.01c-.24-1.13.22-2.28,1.18-2.93l.85-.58c1.14-.78,1.12-2.47-.03-3.21ZM26.86,20.64l-3.96,3.96c-1.12,1.13-2.93,1.13-4.05,0l-1.71-1.7c-.33-.34-.33-.87,0-1.2l.63-.63c.34-.34.87-.34,1.2,0l1.65,1.64c.14.15.37.15.51,0l3.9-3.9c.34-.34.9-.34,1.23,0l.59.61c.34.34.34.88,0,1.22Z"/>
    </g>
  </g>
</svg>