<?xml version="1.0" encoding="UTF-8"?>
<svg id="Layer_2" data-name="Layer 2" xmlns="http://www.w3.org/2000/svg" viewBox="0 0 44 44">
  <defs>
    <style>
      .cls-1 {
        fill: #000;
      }

      .cls-1, .cls-2 {
        stroke-width: 0px;
      }

      .cls-2 {
        fill: none;
      }
    </style>
  </defs>
  <g id="object">
    <g>
      <rect class="cls-2" width="44" height="44"/>
      <g>
        <path class="cls-1" d="M32.26,19.56v1.51c0,.41-.33.76-.76.76h-.67l-2.51,10.79c-.37,1.59-1.8,2.72-3.42,2.72h-5.82c-1.62,0-3.05-1.13-3.42-2.72l-2.51-10.79h-.67c-.43,0-.76-.35-.76-.76v-1.51c0-.43.33-.76.76-.76h19c.43,0,.76.33.76.76Z"/>
        <path class="cls-1" d="M30.8,18.04v.02c-.02.11-.14.21-.32.21H13.91c-.17,0-.32-.1-.33-.21.02-.03.03-.06.05-.1.02-.05.03-.05.05-.06.19-.25.52-.41.91-.41.17,0,.35.03.49.1.35-.91,1.37-1.56,2.57-1.56.51,0,1,.11,1.4.32.68-.73,1.72-1.19,2.89-1.19,1.32,0,2.48.59,3.13,1.49.41-.29.95-.44,1.54-.44,1.05,0,1.92.51,2.3,1.24.21-.13.44-.19.7-.19.56,0,1.02.3,1.16.72.02.03.03.05.03.08Z"/>
      </g>
    </g>
  </g>
</svg>