<?xml version="1.0" encoding="UTF-8"?>
<svg id="Layer_2" data-name="Layer 2" xmlns="http://www.w3.org/2000/svg" viewBox="0 0 44 44">
  <defs>
    <style>
      .cls-1 {
        fill: #000;
      }

      .cls-1, .cls-2 {
        stroke-width: 0px;
      }

      .cls-2 {
        fill: none;
      }
    </style>
  </defs>
  <g id="completed">
    <g>
      <rect class="cls-2" width="44" height="44"/>
      <path class="cls-1" d="M33.02,21.61c0-6.02-4.88-9.74-10.89-9.74s-10.89,3.72-10.89,9.74,4.87,9.74,10.89,9.74c13.27,0,10.89,6.3,10.89-9.74ZM18.45,26.78c-2.05-.84-2.9-2.52-2.9-5.02,0-3.68,1.86-5.6,6.67-5.6,4.17,0,6.13,1.44,6.57,4.24-.96-.53-2.33-.86-4.19-.86-5.73,0-6.59,3.17-6.59,5.06,0,.63.1,1.42.45,2.18ZM24.59,27.37c-.41,0-.79-.02-1.15-.06-2.26-.22-3.15-1.13-3.15-2.72,0-1.82,1.19-2.77,4.3-2.77,2.42,0,3.68.57,4.11,1.7.13.31.18.68.18,1.08,0,1.82-1.19,2.77-4.3,2.77Z"/>
    </g>
  </g>
</svg>