<?xml version="1.0" encoding="UTF-8"?>
<svg id="Layer_2" data-name="Layer 2" xmlns="http://www.w3.org/2000/svg" viewBox="0 0 44 44">
  <defs>
    <style>
      .cls-1 {
        fill: #000;
      }

      .cls-1, .cls-2 {
        stroke-width: 0px;
      }

      .cls-2 {
        fill: none;
      }
    </style>
  </defs>
  <g id="object">
    <g>
      <rect class="cls-2" width="44" height="44"/>
      <path class="cls-1" d="M34.46,23.36c.07-.14.12-.28.17-.43.76-2.24.17-4.91-1.64-7.54-5.65-8.14-21.63-4.89-23.44-4.49l-1.67.37.67,1.58c4.29,10.04,11.21,16.16,17.6,15.59.14,0,.29-.03.46-.05,1.24-.17,2.94-.62,4.48-1.49.65-.37,1.27-.81,1.82-1.34,1.94,2.32,2.77,5.11,1.4,8.56-.09.16-.02.35.13.42.13.05.29,0,.37-.12,1.08-1.24,1.84-2.87,1.99-4.67-.04-2.49-.92-4.59-2.34-6.38ZM25.91,25.62c-4.62.42-9.95-4.18-13.69-11.62,1.92.85,3.84,1.66,5.74,2.51,3.62,1.83,9.17,3.97,12.93,7.07-1.36,1.26-3.55,1.91-4.97,2.04ZM32.11,21.02c-3.86-3.15-9.36-5.06-13.47-6.39-1.92-.56-3.87-1.04-5.82-1.41,4.71-.68,14.3-1.3,17.84,3.8,1,1.43,1.49,2.82,1.45,4.01Z"/>
    </g>
  </g>
</svg>