<?xml version="1.0" encoding="UTF-8"?>
<svg id="Layer_2" data-name="Layer 2" xmlns="http://www.w3.org/2000/svg" viewBox="0 0 44 44">
  <defs>
    <style>
      .cls-1 {
        fill: #000;
      }

      .cls-1, .cls-2 {
        stroke-width: 0px;
      }

      .cls-2 {
        fill: none;
      }
    </style>
  </defs>
  <g id="object">
    <g>
      <rect class="cls-2" width="44" height="44"/>
      <g>
        <path class="cls-1" d="M28.7,20.94c-1.29,0-2.48-.12-3.52-.37.1,1.19.75,1.49,2.14,1.9,1.04.32,2.28.83,2.99,1.84.8,1.11,1.08,2.55.64,3.82-.46,1.41-1.33,1.98-1.81,2.84.22-.05.45-.07.68-.07,1.77,0,3.21,1.41,3.21,3.15s-1.44,3.15-3.21,3.15v.02h-15.17c-.06,0-.11,0-.17-.01-2.17-.07-3.9-1.69-3.9-3.67s1.82-3.68,4.07-3.68c.67,0,1.31.15,1.86.4.58-2.53,2.88-4.43,5.64-4.43,2.29,0,4.28,1.31,5.21,3.21.89-1.77,1.27-2.97-1.09-3.69-.79-.31-2.04-.81-2.84-1.96-.44-.7-.69-1.51-.68-2.32-1.32.47-2.94.69-4.73.69-4.68,0-8.22-1.49-8.22-5.14,0-1.96,1.02-3.29,2.69-4.09-.24-.43-.37-.93-.37-1.48,0-3.03,3.85-4.27,8.94-4.27s8.94,1.24,8.94,4.27c0,.47-.09.91-.27,1.29,3.65.19,6.29,1.47,6.29,4.28,0,3.07-3.15,4.32-7.32,4.32Z"/>
        <path class="cls-1" d="M14.65,37.22h-.17.17Z"/>
      </g>
    </g>
  </g>
</svg>