<?xml version="1.0" encoding="UTF-8"?>
<svg id="Layer_2" data-name="Layer 2" xmlns="http://www.w3.org/2000/svg" viewBox="0 0 44 44">
  <defs>
    <style>
      .cls-1 {
        fill: #000;
      }

      .cls-1, .cls-2 {
        stroke-width: 0px;
      }

      .cls-2 {
        fill: none;
      }
    </style>
  </defs>
  <g id="object">
    <g>
      <rect class="cls-2" width="44" height="44"/>
      <path class="cls-1" d="M37.51,22c-3.01-2.29-3.63-4.46-2.13-7.82-3.68-.34-5.22-1.88-5.57-5.53-3.35,1.47-5.51.85-7.81-2.1-2.29,2.96-4.46,3.57-7.81,2.1-.35,3.65-1.9,5.19-5.57,5.53,1.5,3.37.88,5.53-2.13,7.82,3.01,2.29,3.63,4.46,2.13,7.82,3.68.34,5.22,1.88,5.57,5.53,3.35-1.47,5.51-.85,7.81,2.1,2.29-2.96,4.46-3.57,7.81-2.1.35-3.65,1.9-5.19,5.57-5.53-1.5-3.37-.88-5.53,2.13-7.82ZM22,31.78c-5.4,0-9.78-4.38-9.78-9.78s4.38-9.78,9.78-9.78,9.78,4.38,9.78,9.78-4.38,9.78-9.78,9.78Z"/>
      <circle class="cls-1" cx="22" cy="22" r="6.72" transform="translate(-3.24 40.19) rotate(-80.78)"/>
    </g>
  </g>
</svg>