<?xml version="1.0" encoding="UTF-8"?>
<svg id="Layer_2" data-name="Layer 2" xmlns="http://www.w3.org/2000/svg" viewBox="0 0 44 44">
  <defs>
    <style>
      .cls-1 {
        fill: #000;
      }

      .cls-1, .cls-2 {
        stroke-width: 0px;
      }

      .cls-2 {
        fill: none;
      }
    </style>
  </defs>
  <g id="object">
    <g>
      <rect class="cls-2" width="44" height="44"/>
      <path class="cls-1" d="M32.04,21.52c-5.41-9.48-18.37-12.72-18.37-12.72,0,0-3.78,12.81,1.65,22.29,2.64,4.61,8.51,6.22,13.13,3.59,4.64-2.66,6.24-8.54,3.59-13.15ZM27.41,33.7c-9.82,2.32-13.23-6.61-13.19-14.77-.1-2.59.06-5.16.26-7.75,0-.14.23-.12.24.02,1.54,8.65.4,22.67,12.65,22.26.14-.01.21.22.05.23Z"/>
    </g>
  </g>
</svg>