<?xml version="1.0" encoding="UTF-8"?>
<svg id="Layer_2" data-name="Layer 2" xmlns="http://www.w3.org/2000/svg" viewBox="0 0 411.65 131.07">
  <defs>
    <style>
      .cls-1 {
        fill: #00a2b1;
      }

      .cls-1, .cls-2, .cls-3, .cls-4 {
        stroke-width: 0px;
      }

      .cls-5 {
        isolation: isolate;
      }

      .cls-2 {
        fill: #02a3b0;
      }

      .cls-3 {
        fill: #eb5862;
      }

      .cls-4 {
        fill: #fff;
      }
    </style>
  </defs>
  <g id="_Слой_1" data-name="Слой 1">
    <g>
      <path class="cls-3" d="M0,85.68V27.8h6.78l26,43.74h-3.68l25.64-43.74h6.78l.08,57.88h-7.94l-.08-45.4h1.9l-22.82,38.37h-3.8L5.86,40.28h2.08v45.4H0Z"/>
      <path class="cls-3" d="M77,78.48h33.73v7.2h-42V27.8h40.85v7.19h-32.58v43.49ZM76.25,52.77h29.75v7h-29.77l.02-7Z"/>
      <path class="cls-3" d="M117.82,98.33l.08-19.85h63v19.85h-7.69v-12.65h-47.62l-.08,12.65h-7.69ZM164.21,81.79v-46.8h-25.39l-.41,12.16c-.16,4.08-.42,7.99-.79,11.74-.3,3.39-.81,6.77-1.52,10.1-.52,2.6-1.45,5.1-2.77,7.4-.95,1.77-2.58,3.07-4.51,3.6l-8.93-1.49c2.03.23,4.04-.6,5.33-2.19,1.6-2.01,2.73-4.35,3.31-6.86.88-3.39,1.47-6.85,1.78-10.34.38-3.94.66-8.17.83-12.69l.57-18.6h40.68v54l-8.18-.03Z"/>
      <path class="cls-1" d="M236.92,85.68V27.8h8.08v57.88h-8.08ZM242.54,60.21v-7.22h18.77v7.27l-18.77-.05ZM262.3,57.65l-7.61-1.16,20.76-28.69h8.85l-22,29.85ZM275.86,85.65l-21-28.53,6.7-4.13,23.73,32.66h-9.43Z"/>
      <path class="cls-1" d="M292.64,85.68l26.21-57.88h8.15l26.29,57.88h-8.68l-23.4-53.25h3.31l-23.4,53.25h-8.48ZM303.81,71.21l2.19-6.62h32.57l2.4,6.62h-37.16Z"/>
      <path class="cls-1" d="M360.44,85.68V27.8h49.86v57.88h-8.1v-52.84l2,2.15h-37.64l2.07-2.15v52.84h-8.19Z"/>
      <rect class="cls-4" x="199.87" y="49.87" width="10.88" height="37.79"/>
      <path class="cls-2" d="M203.37,80.7s-9.92-1.33-13.08-3.67c-2.88-2.14-2.09-6.55,1.09-8.06,0,0,2.75-1.54,13.4-3.34,2.2-.3,4.36-.88,6.42-1.73,1.44-.64.78-1.67,0-1.86-1-.23-3.23.3-4.18.09l1.05-5.29c3.27.18,7.25.59,9.85,2.77s2.42,5.5-.42,7.52-5.94,2.66-9.16,3.29-5.14.54-8.48,1.24c-6.27,1.14,0,2.76,0,2.76"/>
      <circle class="cls-4" cx="194.73" cy="10.24" r="1.04"/>
      <path class="cls-2" d="M173.35,19.87l-4.45-2c1.47,1.33,3.13,2.72,4.64,4.23,2.13,2.31,5.28,3.38,8.38,2.85,2.78-.52,5.33-1.92,7.25-4,.35-.35.7-.87,1.12-.94s1-.29,1.3-.38c-1-.35-2.12-.73-3.11-1.05.04.47.24.92.58,1.25-3.52,3.53-8.85,5.76-13.51,1.08-.86-.78-1.76-1.52-2.7-2.2"/>
      <path class="cls-2" d="M208.71,77.84c.12,0,0-.85.13-.81,2.65.63,5.14,1.81,7.31,3.45,0,0,10.85,8.39-19.32,17.73-.18.06-.32-.18-.15-.28,10-5.76,15.08-9.78,15.52-13,.29-2.09-3.33-3.3-3.33-3.3"/>
      <path class="cls-2" d="M196.41,74.77c1.95.96,4,1.72,6.1,2.26"/>
      <path class="cls-2" d="M202,55.58c-6.94-.79-8.85-5-.09-6.45l11.1-3.5c1.3-.46,2.57-1.01,3.79-1.64,11.2-5.57,17.48-18.22,14.25-29s-14.87-18.4-29.48-13.44c-6.26,2.12-10.93,7.41-12.26,13.89-.12.59-.3,1.17-.54,1.73-.46.72-.46,1.64,0,2.36l.34.36c.16,0,0-.25.15-.17.15.04.29.13.4.25.05.05.09.1.13.16.06-.05.13-.08.21-.09,2.79-.5,5-2.14,7.42-3.48,1.84-1.14,3.19-2.92,3.78-5,.38-1.32,1.4-2.35,2.71-2.76,9.36-5.77,17.65,1.42,19.24,8,2.3,9.5-1.9,18.36-11,21.86l-.18.07c-4.09,1.53-8.59,2.92-11.3,3.66-2.35.62-4.65,1.42-6.88,2.4-2.43,1-4.71,2.32-6.79,3.92-4.1,3.31-3.48,8.5,1.16,10.89,1.52.79,3.15,1.34,4.84,1.64,2.61.46,6.12.69,9,.89h0v-5.59"/>
      <rect class="cls-4" x="199.87" y="72.31" width="10.88" height="13.94"/>
      <rect class="cls-4" x="199.87" y="51.5" width="10.88" height="11.76"/>
      <rect class="cls-2" x="201.46" y="27.8" width="7.71" height="57.88"/>
      <path class="cls-4" d="M191.77,13.23l1.92-1.53c.09.8-.48,1.51-1.28,1.6-.22.02-.44,0-.64-.07Z"/>
      <g class="cls-5">
        <g class="cls-5">
          <path class="cls-2" d="M.12,120.24c0-4.4,3.36-7.62,7.89-7.62,2.3,0,4.3.79,5.66,2.32l-1.38,1.34c-1.15-1.21-2.55-1.77-4.19-1.77-3.36,0-5.85,2.42-5.85,5.72s2.49,5.72,5.85,5.72c1.64,0,3.04-.57,4.19-1.79l1.38,1.34c-1.36,1.53-3.36,2.34-5.68,2.34-4.51,0-7.87-3.21-7.87-7.61Z"/>
        </g>
        <g class="cls-5">
          <path class="cls-2" d="M22.32,121.14h-3.11v6.55h-2.08v-14.89h2.08v6.47h3.15l4.68-6.47h2.28l-5.32,7.21,5.57,7.68h-2.42l-4.83-6.55Z"/>
        </g>
        <g class="cls-5">
          <path class="cls-2" d="M31.02,120.24c0-4.36,3.36-7.62,7.93-7.62s7.89,3.23,7.89,7.62-3.36,7.61-7.89,7.61-7.93-3.25-7.93-7.61ZM44.71,120.24c0-3.3-2.47-5.72-5.76-5.72s-5.81,2.42-5.81,5.72,2.47,5.72,5.81,5.72,5.76-2.42,5.76-5.72Z"/>
        </g>
        <g class="cls-5">
          <path class="cls-2" d="M62.83,117.99c0,3.23-2.34,5.19-6.21,5.19h-3.68v4.51h-2.13v-14.89h5.81c3.87,0,6.21,1.96,6.21,5.19ZM60.7,117.99c0-2.13-1.42-3.34-4.15-3.34h-3.62v6.68h3.62c2.72,0,4.15-1.21,4.15-3.34Z"/>
        </g>
        <g class="cls-5">
          <path class="cls-2" d="M75.25,123.97h-7.91l-1.64,3.72h-2.19l6.74-14.89h2.11l6.76,14.89h-2.23l-1.64-3.72ZM74.5,122.26l-3.21-7.3-3.21,7.3h6.42Z"/>
        </g>
        <g class="cls-5">
          <path class="cls-2" d="M92.43,112.8v14.89h-2.08v-4.34h-4.11c-.19,0-.38,0-.57-.02l-2.98,4.36h-2.25l3.3-4.72c-2.11-.7-3.3-2.4-3.3-4.81,0-3.4,2.36-5.36,6.02-5.36h5.98ZM86.41,121.56h3.94v-6.91h-3.81c-2.53,0-3.96,1.19-3.96,3.49s1.3,3.42,3.83,3.42Z"/>
          <path class="cls-2" d="M117.44,127.69l-.02-10.85-5.38,9.04h-.98l-5.38-8.98v10.78h-2.04v-14.89h1.74l6.21,10.47,6.13-10.47h1.74l.02,14.89h-2.04Z"/>
          <path class="cls-2" d="M135.35,125.84v1.85h-10.81v-14.89h10.51v1.85h-8.38v4.57h7.47v1.81h-7.47v4.81h8.68Z"/>
          <path class="cls-2" d="M153.3,125.84v5.11h-1.98v-3.25h-12.25l-.02,3.25h-1.98l.02-5.11h.72c2.04-.13,2.53-3.72,2.68-8.25l.15-4.79h10.47v13.04h2.19ZM140.61,125.84h8.4v-11.19h-6.53l-.11,3.13c-.13,3.64-.49,6.91-1.77,8.06Z"/>
          <path class="cls-2" d="M156.64,112.8h2.11v11.49l8.81-11.49h1.96v14.89h-2.08v-11.46l-8.83,11.46h-1.96v-14.89Z"/>
          <path class="cls-2" d="M189.38,125.84v5.23h-1.98v-3.38h-12.83v-14.89h2.11v13.04h8.3v-13.04h2.11v13.04h2.3Z"/>
          <path class="cls-2" d="M192.63,112.8h2.11v11.49l8.81-11.49h1.96v14.89h-2.08v-11.46l-8.83,11.46h-1.96v-14.89Z"/>
          <path class="cls-2" d="M223.37,112.8v14.89h-2.13v-6.64h-8.55v6.64h-2.13v-14.89h2.13v6.4h8.55v-6.4h2.13Z"/>
          <path class="cls-2" d="M227.22,120.24c0-4.4,3.36-7.62,7.89-7.62,2.3,0,4.3.79,5.66,2.32l-1.38,1.34c-1.15-1.21-2.55-1.77-4.19-1.77-3.36,0-5.85,2.42-5.85,5.72s2.49,5.72,5.85,5.72c1.64,0,3.04-.57,4.19-1.79l1.38,1.34c-1.36,1.53-3.36,2.34-5.68,2.34-4.51,0-7.87-3.21-7.87-7.61Z"/>
        </g>
        <g class="cls-5">
          <path class="cls-2" d="M250.35,121.14h-3.11v6.55h-2.08v-14.89h2.08v6.47h3.15l4.68-6.47h2.28l-5.32,7.21,5.57,7.68h-2.42l-4.83-6.55Z"/>
          <path class="cls-2" d="M269.04,123.97h-7.91l-1.64,3.72h-2.19l6.74-14.89h2.11l6.76,14.89h-2.23l-1.64-3.72ZM268.3,122.26l-3.21-7.3-3.21,7.3h6.42Z"/>
        </g>
        <g class="cls-5">
          <path class="cls-2" d="M286.97,112.8v14.89h-2.08v-4.34h-4.11c-.19,0-.38,0-.57-.02l-2.98,4.36h-2.25l3.3-4.72c-2.11-.7-3.3-2.4-3.3-4.81,0-3.4,2.36-5.36,6.02-5.36h5.98ZM280.95,121.56h3.93v-6.91h-3.81c-2.53,0-3.96,1.19-3.96,3.49s1.3,3.42,3.83,3.42Z"/>
          <path class="cls-2" d="M311.43,112.8v14.89h-2.08v-13.04h-8.64v13.04h-2.11v-14.89h12.83Z"/>
          <path class="cls-2" d="M315.47,120.24c0-4.36,3.36-7.62,7.93-7.62s7.89,3.23,7.89,7.62-3.36,7.61-7.89,7.61-7.93-3.25-7.93-7.61ZM329.17,120.24c0-3.3-2.47-5.72-5.76-5.72s-5.81,2.42-5.81,5.72,2.47,5.72,5.81,5.72,5.76-2.42,5.76-5.72Z"/>
          <path class="cls-2" d="M349.18,127.69l-.02-10.85-5.38,9.04h-.98l-5.38-8.98v10.78h-2.04v-14.89h1.74l6.21,10.47,6.13-10.47h1.74l.02,14.89h-2.04Z"/>
          <path class="cls-2" d="M355.27,120.24c0-4.36,3.36-7.62,7.93-7.62s7.89,3.23,7.89,7.62-3.36,7.61-7.89,7.61-7.93-3.25-7.93-7.61ZM368.97,120.24c0-3.3-2.47-5.72-5.76-5.72s-5.81,2.42-5.81,5.72,2.47,5.72,5.81,5.72,5.76-2.42,5.76-5.72Z"/>
          <path class="cls-2" d="M396.06,125.84v5.11h-1.96v-3.25h-18.93v-14.89h2.11v13.04h6.19v-13.04h2.08v13.04h6.19v-13.04h2.08v13.04h2.23Z"/>
          <path class="cls-2" d="M411.65,122.69c0,3.3-2.15,5-5.87,5h-6.15v-14.89h2.11v5.19h4.42c3.53,0,5.49,1.59,5.49,4.7ZM409.53,122.73c0-2.11-1.34-3.06-3.83-3.06h-3.96v6.34h3.96c2.47,0,3.83-1.13,3.83-3.28Z"/>
        </g>
      </g>
    </g>
  </g>
</svg>