<?xml version="1.0" encoding="utf-8"?>
<!-- Generator: Adobe Illustrator 25.4.1, SVG Export Plug-In . SVG Version: 6.00 Build 0)  -->
<svg version="1.1" id="Слой_1" xmlns="http://www.w3.org/2000/svg" xmlns:xlink="http://www.w3.org/1999/xlink" x="0px" y="0px"
	 viewBox="0 0 44 44" style="enable-background:new 0 0 44 44;" xml:space="preserve">
<style type="text/css">
	.st0{fill:#02A3B0;}
	.st1{fill:#FFFFFF;}
</style>
<g>
	<circle class="st0" cx="22" cy="22" r="22"/>
	<g>
		<path class="st1" d="M21.51,33.44c0,0-3.42-0.46-4.51-1.27c-0.99-0.74-0.72-2.25,0.38-2.78c0,0,0.94-0.53,4.62-1.15
			c1.5-0.25,2.21-0.6,2.21-0.6c0.5-0.22,0.27-0.58,0-0.64c-0.34-0.08-1.11,0.1-1.44,0.03l0.36-1.82c1.13,0.06,2.5,0.2,3.39,0.96
			c0.91,0.76,0.83,1.9-0.14,2.59c-0.94,0.67-2.05,0.92-3.16,1.13c-1.15,0.23-1.77,0.19-2.92,0.42c-2.16,0.4,0,0.95,0,0.95"/>
		<circle class="st1" cx="18.53" cy="9.15" r="0.36"/>
		<g>
			<g>
				<path class="st1" d="M11.16,12.47c-0.55-0.25-1.1-0.5-1.53-0.69c0.51,0.46,1.08,0.94,1.6,1.46c0.8,0.8,1.74,1.16,2.89,0.98
					c1.01-0.16,1.8-0.7,2.5-1.39c0.12-0.12,0.24-0.3,0.39-0.32c0.12-0.02,0.33-0.1,0.45-0.13c-0.34-0.12-0.73-0.25-1.07-0.36
					c0.04,0.14,0.04,0.31,0.2,0.43c-1.21,1.22-3.05,1.98-4.66,0.37c-0.28-0.28-0.62-0.51-0.93-0.76"/>
				<g>
					<path class="st1" d="M23.34,32.45c0.04,0.01,0-0.29,0.04-0.28c0.84,0.23,1.82,0.61,2.52,1.19c0,0,3.74,2.89-6.66,6.11
						c-0.06,0.02-0.11-0.06-0.05-0.1c3.45-1.98,5.2-3.37,5.35-4.48c0.1-0.72-1.15-1.14-1.15-1.14"/>
					<path class="st1" d="M19.11,31.39c0.42,0.24,1.63,0.68,2.1,0.78"/>
					<g>
						<path class="st1" d="M21.04,24.78c-2.39-0.27-3.05-1.74-0.03-2.22l3.82-1.21c0.45-0.15,0.88-0.35,1.3-0.56
							c3.86-1.93,6.02-6.29,4.91-10.01c-1.11-3.73-5.12-6.33-10.16-4.62c-2.16,0.73-3.67,2.44-4.22,4.79
							c-0.05,0.2-0.1,0.41-0.19,0.6c-0.13,0.29-0.2,0.57-0.01,0.81c0.01,0.01,0.11,0.12,0.12,0.13c0.05,0,0.01-0.09,0.05-0.06
							c0.05,0.02,0.1,0.05,0.13,0.09c0.02,0.02,0.03,0.04,0.05,0.06c0.02-0.01,0.05-0.03,0.07-0.03c0.96-0.17,1.74-0.74,2.56-1.2
							c0.67-0.38,1.03-0.97,1.3-1.71c0.3-0.82,0.93-0.95,0.93-0.95c3.23-1.99,6.08,0.49,6.63,2.76c0.79,3.27-0.66,6.33-3.8,7.53
							c-0.02,0.01-0.04,0.02-0.06,0.02c-1.41,0.53-2.96,1.01-3.89,1.26c-0.68,0.18-1.39,0.39-2.37,0.83
							c-0.82,0.36-1.64,0.78-2.34,1.34c-1.41,1.14-1.2,2.93,0.4,3.75c0.52,0.27,1.1,0.46,1.68,0.56c0.9,0.16,2.11,0.24,3.12,0.31
							c0,0,0,0,0,0c0,0,0-1.93,0-1.93"/>
					</g>
				</g>
			</g>
		</g>
		<rect x="20.3" y="30.55" class="st0" width="3.75" height="4.8"/>
		<rect x="20.3" y="23.37" class="st0" width="3.75" height="4.05"/>
		<rect x="20.85" y="16.58" class="st1" width="2.66" height="18.57"/>
	</g>
</g>
</svg>
