<?xml version="1.0" encoding="UTF-8"?>
<svg id="Layer_2" data-name="Layer 2" xmlns="http://www.w3.org/2000/svg" viewBox="0 0 44 44">
  <defs>
    <style>
      .cls-1 {
        fill: #05B8C1;
      }

      .cls-1, .cls-2 {
        stroke-width: 0px;
      }

      .cls-2 {
        fill: none;
      }
    </style>
  </defs>
  <g id="export1">
    <g>
      <rect class="cls-2" width="44" height="44"/>
      <g>
        <circle class="cls-1" cx="15.48" cy="17.97" r="4.85"/>
        <path class="cls-1" d="M24.25,28.29v.12c0,3.61-2.92,6.53-6.52,6.53h-1.68c-2.03,0-3.88-.77-5.26-2.04-1.51-1.38-1.72-3.67-.5-5.31,1.84-2.46,4.78-4.05,8.1-4.05.78,0,1.55.09,2.28.26,2.09.48,3.58,2.35,3.58,4.5Z"/>
        <path class="cls-1" d="M28.52,9.89c-2.99,0-5.98,1.16-5.98,5.42s-3.05,5.42,5.98,5.42c2.99,0,5.98-1.16,5.98-5.42s-2.99-5.42-5.98-5.42ZM29.81,17.78h-4.18c-.42,0-.66-.34-.66-.77s.24-.77.66-.77h4.18c.42,0,.65.34.65.77s-.23.77-.65.77ZM31,14.86h-4.76c-.43,0-.7-.36-.7-.77s.27-.77.7-.77h4.76c.43,0,.69.34.69.77s-.26.77-.69.77Z"/>
      </g>
    </g>
  </g>
</svg>