<?xml version="1.0" encoding="UTF-8"?>
<svg id="Layer_2" data-name="Layer 2" xmlns="http://www.w3.org/2000/svg" viewBox="0 0 44 44">
  <defs>
    <style>
      .cls-1 {
        fill: #000;
      }

      .cls-1, .cls-2 {
        stroke-width: 0px;
      }

      .cls-2 {
        fill: none;
      }
    </style>
  </defs>
  <g id="export1">
    <g>
      <rect class="cls-2" width="44" height="44"/>
      <g>
        <path class="cls-1" d="M18.52,28.74c-1.34,0-2.71-.24-4.1-.9l1.18-2.48c2.44,1.16,4.95.51,7.6-.18,2.98-.77,6.35-1.65,9.78.2l-1.3,2.41c-2.48-1.34-4.94-.7-7.78.04-1.68.44-3.49.91-5.37.91Z"/>
        <path class="cls-1" d="M18.85,23.55c-1.34,0-2.72-.24-4.11-.9l1.18-2.47c2.44,1.16,4.94.51,7.6-.18,2.97-.78,6.35-1.66,9.77.2l-1.3,2.41c-2.48-1.34-4.94-.7-7.78.04-1.68.44-3.49.91-5.36.91Z"/>
        <path class="cls-1" d="M19.17,18.36c-1.34,0-2.72-.24-4.11-.9l1.18-2.47c2.43,1.16,4.94.51,7.6-.18,2.98-.77,6.35-1.65,9.78.2l-1.3,2.41c-2.47-1.34-4.93-.7-7.78.04-1.68.44-3.49.91-5.36.91Z"/>
        <path class="cls-1" d="M32.65,33.64c0,1.19-.26,1.37-.67,1.37H11.94l-2.74-2.74V11.73l2.74-2.74h9.63c.4,0,.65.18.65,1.37s-.25,1.37-.65,1.37h-9.63v20.54h20.04c.41,0,.67.19.67,1.37Z"/>
      </g>
    </g>
  </g>
</svg>