<?xml version="1.0" encoding="UTF-8"?>
<svg id="Layer_2" data-name="Layer 2" xmlns="http://www.w3.org/2000/svg" viewBox="0 0 44 44">
  <defs>
    <style>
      .cls-1 {
        fill: #05B8C1;
      }

      .cls-1, .cls-2 {
        stroke-width: 0px;
      }

      .cls-2 {
        fill: none;
      }
    </style>
  </defs>
  <g id="completed">
    <g>
      <rect class="cls-2" width="44" height="44"/>
      <path class="cls-1" d="M30.19,28.77c-.14,1.05-1.03,1.85-2.12,1.85s-2-.83-2.13-1.9c-1.67.08-4.08.08-7.52.08-.16,1.03-1.05,1.81-2.12,1.81-1.17,0-2.11-.92-2.14-2.09-3.39-.66-3.92-2.68-4.43-7.43-.64-5.94,2.84-7.7,8.08-7.7,7.46,0,9.56,0,10.09,4.06.28-.07.59-.11.94-.11,3.01,0,5.15,2.58,5.45,5.73.41,4.39-.83,5.49-4.09,5.7Z"/>
    </g>
  </g>
</svg>