<?xml version="1.0" encoding="UTF-8"?>
<svg id="Layer_2" data-name="Layer 2" xmlns="http://www.w3.org/2000/svg" viewBox="0 0 44 44">
  <defs>
    <style>
      .cls-1 {
        fill: #000;
      }

      .cls-1, .cls-2 {
        stroke-width: 0px;
      }

      .cls-2 {
        fill: none;
      }
    </style>
  </defs>
  <g id="export1">
    <g>
      <rect class="cls-2" width="44" height="44"/>
      <g>
        <polygon class="cls-1" points="22.81 26.41 18.52 30.71 16.36 28.55 11.08 33.83 10.17 32.92 15.45 27.64 13.29 25.48 17.59 21.19 22.81 26.41"/>
        <polygon class="cls-1" points="24.67 24.56 24.65 24.57 19.43 19.35 19.45 19.34 24.67 24.56"/>
        <polygon class="cls-1" points="31.9 31.79 31.9 31.8 31.89 31.8 24.65 24.57 19.43 19.35 12.3 12.21 12.31 12.2 19.45 19.34 24.67 24.56 31.9 31.79"/>
        <polygon class="cls-1" points="26.53 22.71 33.76 29.94 31.9 31.8 31.9 31.79 24.67 24.56 19.45 19.34 12.31 12.2 14.17 10.36 21.3 17.49 24.95 13.82 26.41 15.28 26.41 15.29 26.42 15.29 28.59 13.18 26.73 11.32 27.87 10.17 33.83 16.13 32.68 17.27 30.88 15.47 28.72 17.59 30.18 19.05 26.53 22.71"/>
        <polygon class="cls-1" points="31.9 31.79 31.9 31.8 31.89 31.8 24.65 24.57 19.43 19.35 12.3 12.21 12.31 12.2 19.45 19.34 24.67 24.56 31.9 31.79"/>
      </g>
    </g>
  </g>
</svg>