<?xml version="1.0" encoding="UTF-8"?>
<svg id="Layer_2" data-name="Layer 2" xmlns="http://www.w3.org/2000/svg" viewBox="0 0 44 44">
  <defs>
    <style>
      .cls-1 {
        fill: #000;
      }

      .cls-1, .cls-2 {
        stroke-width: 0px;
      }

      .cls-2 {
        fill: none;
      }
    </style>
  </defs>
  <g id="export1">
    <g>
      <rect class="cls-2" width="44" height="44"/>
      <path class="cls-1" d="M22,10.14c-10.84,0-10.84.36-10.84,6.91,0,9.48,7.36,16.82,10.84,16.82s10.84-7.34,10.84-16.82c0-6.55,0-6.91-10.84-6.91ZM25.99,21.32h-2.46v2.44c0,.78-.61,1.13-1.4,1.13s-1.4-.35-1.4-1.13v-2.44h-2.44c-.77,0-1.12-.63-1.12-1.4s.35-1.4,1.12-1.4h2.44v-2.44c0-.78.63-1.12,1.4-1.12s1.4.34,1.4,1.12v2.44h2.46c.77,0,1.12.63,1.12,1.4s-.35,1.4-1.12,1.4Z"/>
    </g>
  </g>
</svg>