<?xml version="1.0" encoding="UTF-8"?>
<svg id="Layer_2" data-name="Layer 2" xmlns="http://www.w3.org/2000/svg" viewBox="0 0 44 44">
  <defs>
    <style>
      .cls-1 {
        fill: #000;
      }

      .cls-1, .cls-2 {
        stroke-width: 0px;
      }

      .cls-2 {
        fill: none;
      }
    </style>
  </defs>
  <g id="completed">
    <g>
      <rect class="cls-2" width="44" height="44"/>
      <path class="cls-1" d="M35.89,15.76l-4.43,9.88c-.44,1.01-1.45,1.65-2.53,1.65h-14.65c-.3,0-.5.3-.64.72-.04.16-.08.32-.1.48-.02.1-.04.18-.02.26-.06.58.06,1.07.44,1.13h12.39c1.29,0,2.31,1.03,2.31,2.31s-1.03,2.31-2.31,2.31-2.31-1.05-2.31-2.31h-10.38c-.02,1.25-1.05,2.25-2.29,2.25s-2.27-1.03-2.27-2.29c0-.82.44-1.55,1.09-1.93.5-2.98,1.03-5.71,1.55-8.45.44-2.37.91-4.75,1.35-7.3,0-.04.02-.06,0-.1.04-.26,0-.52-.18-.72-.16-.18-.4-.26-.64-.28h-.08l-2.19-.06c-.85-.02-1.21-.72-1.19-1.55.04-.82.42-1.47,1.23-1.47h.04l5.95.18h.1c.44.06.58.48.52.99v.04l-.12.7c-.02.1-.04.24-.06.34v.04c-.02.14-.04.26-.08.38v.02c0,.08.02.12.02.2.06.48.26.84.66.84h17.7c.91,0,1.49.93,1.13,1.73Z"/>
    </g>
  </g>
</svg>