<?xml version="1.0" encoding="UTF-8"?>
<svg id="Layer_2" data-name="Layer 2" xmlns="http://www.w3.org/2000/svg" viewBox="0 0 44 44">
  <defs>
    <style>
      .cls-1 {
        fill: #000;
      }

      .cls-1, .cls-2 {
        stroke-width: 0px;
      }

      .cls-2 {
        fill: none;
      }
    </style>
  </defs>
  <g id="completed">
    <g>
      <rect class="cls-2" width="44" height="44"/>
      <path class="cls-1" d="M33.05,21.38c0-6.15-4.99-9.96-11.14-9.96s-11.14,3.81-11.14,9.96,4.98,9.96,11.14,9.96c13.57,0,11.14,6.45,11.14-9.96ZM27.99,23.45c-.32,1.58-1.77,2.41-4.85,2.41s-4.52-.82-4.85-2.4c-.09-.43.18-.88.6-1.01,1.02-.33,2.43-.49,4.25-.49s3.22.16,4.24.48c.43.14.69.57.61,1.01ZM28.43,20.65c-1.48-.55-3.59-.84-6.42-.84s-4.95.29-6.44.84c-.49.19-1.01-.29-.84-.8.82-2.48,3.06-3.77,7.28-3.77s6.4,1.27,7.24,3.7c.18.53-.29,1.05-.82.87Z"/>
    </g>
  </g>
</svg>