<?xml version="1.0" encoding="UTF-8"?>
<svg id="Layer_2" data-name="Layer 2" xmlns="http://www.w3.org/2000/svg" viewBox="0 0 44 44">
  <defs>
    <style>
      .cls-1 {
        fill: #000;
      }

      .cls-1, .cls-2 {
        stroke-width: 0px;
      }

      .cls-2 {
        fill: none;
      }
    </style>
  </defs>
  <g id="completed">
    <g>
      <rect class="cls-2" width="44" height="44"/>
      <g>
        <path class="cls-1" d="M14.18,15.52h15.63c.93,0,1.68.75,1.68,1.68h0c0,.93-.75,1.68-1.68,1.68H13.67c-.65,0-1.17-.53-1.17-1.17v-.51c0-.93.75-1.68,1.68-1.68Z"/>
        <path class="cls-1" d="M14.18,20.34h15.63c.93,0,1.68.75,1.68,1.68v.5c0,.66-.53,1.19-1.19,1.19H14.18c-.93,0-1.68-.75-1.68-1.68h0c0-.93.75-1.68,1.68-1.68Z"/>
        <path class="cls-1" d="M20.88,25.18h8.93c.93,0,1.68.75,1.68,1.68v.5c0,.66-.53,1.19-1.19,1.19h-9.43c-.93,0-1.68-.75-1.68-1.68h0c0-.93.75-1.68,1.68-1.68Z"/>
      </g>
    </g>
  </g>
</svg>