<?xml version="1.0" encoding="UTF-8"?>
<svg id="Layer_2" data-name="Layer 2" xmlns="http://www.w3.org/2000/svg" viewBox="0 0 44 44">
  <defs>
    <style>
      .cls-1 {
        fill: #000;
      }

      .cls-1, .cls-2 {
        stroke-width: 0px;
      }

      .cls-2 {
        fill: none;
      }
    </style>
  </defs>
  <g id="completed">
    <g>
      <rect class="cls-2" width="44" height="44"/>
      <path class="cls-1" d="M22,10.99c-8.61,0-12.3,2.4-12.3,11.01s3.69,11.01,12.3,11.01,12.3-2.4,12.3-11.01-3.69-11.01-12.3-11.01ZM28.18,27.49h-6.46c-1.07,0-1.96-.87-1.96-1.94,0-.35.3-.65.65-.65h9.08c.35,0,.63.3.63.65,0,1.07-.87,1.94-1.94,1.94ZM30.12,22.67c0,.36-.28.65-.63.65h-13.66c-1.07,0-1.94-.87-1.94-1.94,0-.36.28-.65.63-.65h14.97c.35,0,.63.28.63.65v1.29ZM29.47,19.15h-14.94c-.36,0-.65-.28-.65-.65,0-1.07.87-1.94,1.94-1.94h12.35c1.07,0,1.94.87,1.94,1.94,0,.36-.28.65-.65.65Z"/>
    </g>
  </g>
</svg>