<?xml version="1.0" encoding="UTF-8"?>
<svg id="Layer_2" data-name="Layer 2" xmlns="http://www.w3.org/2000/svg" viewBox="0 0 44 44">
  <defs>
    <style>
      .cls-1 {
        fill: #000;
      }

      .cls-1, .cls-2 {
        stroke-width: 0px;
      }

      .cls-2 {
        fill: none;
      }
    </style>
  </defs>
  <g id="completed">
    <g>
      <rect class="cls-2" width="44" height="44"/>
      <path class="cls-1" d="M31.86,11.75c-1.18-1.19-2.56-2.08-4.1-2.68-1.77-.71-3.74-1.04-5.81-1.04-7.71,0-13.94,2.64-13.94,13.97,0,5.66,1.56,9.16,4.08,11.23,2.52,2.08,6.01,2.74,9.86,2.74h.05c1.1-.01,1.71-.88,1.71-2s-.61-2-1.72-2h-.04c-6.45,0-9.94-1.59-9.94-9.97s3.49-9.97,9.94-9.97c1.16,0,2.23.12,3.19.37,1.51.39,2.78,1.08,3.79,2.07,2.01,1.95,3.03,5.09,3.05,9.39v.02c-.02.77-.94.89-1.5.89h-.06c-.55,0-1.49-.12-1.49-.91v-2.36c-.08-1.74-.68-3.26-1.75-4.38-.6-.62-1.35-1.12-2.25-1.45-.86-.33-1.85-.5-2.98-.5-4.61,0-7,2.93-7,6.8,0,1.93.6,3.63,1.77,4.85,1.18,1.22,2.92,1.95,5.23,1.95,1.89,0,3.41-.49,4.55-1.36.99.88,2.38,1.36,3.92,1.36h.06c.29,0,.58-.02.85-.06,2.6-.31,4.6-2.06,4.65-4.74v-.11c-.02-5.61-1.6-9.56-4.12-12.11ZM21.96,24.77c-2.11,0-3-.84-3-2.8s.89-2.8,3-2.8c1.93,0,2.84.71,2.98,2.34.01.15.02.3.02.46s-.01.31-.02.46c-.14,1.63-1.05,2.34-2.98,2.34Z"/>
    </g>
  </g>
</svg>