<?xml version="1.0" encoding="UTF-8"?>
<svg id="Layer_2" data-name="Layer 2" xmlns="http://www.w3.org/2000/svg" viewBox="0 0 44 44">
  <defs>
    <style>
      .cls-1 {
        fill: #000;
      }

      .cls-1, .cls-2 {
        stroke-width: 0px;
      }

      .cls-2 {
        fill: none;
      }
    </style>
  </defs>
  <g id="completed">
    <g>
      <rect class="cls-2" width="44" height="44"/>
      <g>
        <path class="cls-1" d="M18.7,14.13l-8.4,8.4c-3.08,3.08-3.08,8.09,0,11.17,3.08,3.08,8.09,3.08,11.17,0l.51-.51c.27-.27.04-.76-1.46-2.26-1.5-1.5-1.99-1.74-2.26-1.46l-.51.51c-1.03,1.03-2.69,1.03-3.72,0s-1.03-2.69,0-3.72l8.4-8.4c.26-.26.04-.76-1.46-2.26s-2-1.73-2.26-1.46Z"/>
        <path class="cls-1" d="M22.53,10.3l-1.18,1.18c-.26.26-.04.76,1.46,2.26s2,1.73,2.26,1.46l1.18-1.18c1.02-1.02,2.69-1.03,3.72,0s1.02,2.71,0,3.72l-9.07,9.07c-.26.26-.04.76,1.46,2.26,1.5,1.5,2,1.73,2.26,1.46l9.07-9.07c3.08-3.08,3.08-8.09,0-11.17-3.08-3.08-8.09-3.08-11.17,0Z"/>
      </g>
    </g>
  </g>
</svg>