<?xml version="1.0" encoding="UTF-8"?>
<svg id="Layer_2" data-name="Layer 2" xmlns="http://www.w3.org/2000/svg" viewBox="0 0 44 44">
  <defs>
    <style>
      .cls-1 {
        fill: #000;
      }

      .cls-1, .cls-2 {
        stroke-width: 0px;
      }

      .cls-2 {
        fill: none;
      }
    </style>
  </defs>
  <g id="completed">
    <g>
      <rect class="cls-2" width="44" height="44"/>
      <g>
        <path class="cls-1" d="M35.28,15.8l-12.44,8.41c-.5.34-1.15.34-1.65,0l-12.47-8.41c-.2-.14-.3-.39-.25-.63.97-3.94,4.03-4.92,13.53-4.92s12.55.98,13.53,4.92c.06.24-.04.49-.25.63Z"/>
        <path class="cls-1" d="M36,21.36c0,10.32-.13,12.39-14,12.39s-14-2.08-14-12.39c0-.97,0-1.86.01-2.68,0-.46.53-.72.91-.47l11.44,7.72c.5.34,1.06.5,1.64.5s1.13-.16,1.64-.5l11.44-7.72c.38-.26.9,0,.91.47.01.82.01,1.71.01,2.68Z"/>
      </g>
    </g>
  </g>
</svg>