<?xml version="1.0" encoding="UTF-8"?>
<svg id="Layer_2" data-name="Layer 2" xmlns="http://www.w3.org/2000/svg" viewBox="0 0 144 144">
  <defs>
    <style>
      .cls-1 {
        fill: none;
      }
    </style>
  </defs>
  <g id="form">
    <rect class="cls-1" width="144" height="144"/>
  </g>
  <g id="object">
    <path d="m110.07,91.25l-5.95,10.3h-26.17c.14-.12.28-.23.41-.35,4.79-3.92,8.78-8.28,11.82-12.81.83-1.21,1.61-2.48,2.31-3.79.13-.22.25-.44.35-.66,2.62-4.98,4.07-10.06,4.17-14.88.01-.22.01-.44.01-.66v-.16c0-.23-.01-.46-.02-.69-.23-7-3.34-13.27-8.18-17.67-.61-.59-.99-.9-.99-.9-.27-.21-.63-.49-1.09-.8-.12-.09-.24-.17-.36-.25-4.07-2.87-9.03-4.55-14.38-4.55s-10.37,1.7-14.45,4.6c-.1.06-.2.13-.29.2-.46.31-.82.59-1.09.8,0,0-.38.31-.99.9-4.84,4.4-7.95,10.67-8.18,17.67-.01.23-.02.46-.02.69v.29c0,10.87,6.96,23.1,18.66,32.67.13.12.27.23.41.35h-26.17l-5.95-10.3c1.71.05,3.42.09,5.12.14,1.07,1.68,2.14,3.36,3.21,5.04.01,0,.01.01.01.01,3.17-.42,6.32-.84,9.48-1.26-.02-.01-.04-.03-.06-.05.1-.01.21-.03.31-.04-11.29-8.11-16.62-21.59-13.48-33.56,4.04-15.41,20.42-21.74,32.48-22.12.34-.01.67-.02,1-.02s.66.01,1,.02c12.06.38,28.44,6.71,32.48,22.12,3.14,11.97-2.19,25.45-13.48,33.56.1.01.21.03.31.04-.02.02-.04.04-.06.05,3.16.42,6.31.84,9.48,1.26,0,0,0-.01.01-.01,1.07-1.68,2.14-3.36,3.21-5.04,1.71-.05,3.41-.09,5.12-.14Z"/>
  </g>
</svg>