<?xml version="1.0" encoding="UTF-8"?>
<svg id="Layer_2" data-name="Layer 2" xmlns="http://www.w3.org/2000/svg" viewBox="0 0 44 44">
  <defs>
    <style>
      .cls-1 {
        fill: #000;
      }

      .cls-1, .cls-2 {
        stroke-width: 0px;
      }

      .cls-2 {
        fill: none;
      }
    </style>
  </defs>
  <g id="completed">
    <g>
      <rect class="cls-2" width="44" height="44"/>
      <path class="cls-1" d="M24.94,22c0,1.62-1.13,2.83-2.94,2.83s-2.94-1.21-2.94-2.83,1.13-2.83,2.94-2.83,2.94,1.21,2.94,2.83Z"/>
      <path class="cls-1" d="M14.61,22c0,1.62-1.13,2.83-2.94,2.83s-2.94-1.21-2.94-2.83,1.13-2.83,2.94-2.83,2.94,1.21,2.94,2.83Z"/>
      <path class="cls-1" d="M35.26,22c0,1.62-1.13,2.83-2.94,2.83s-2.94-1.21-2.94-2.83,1.13-2.83,2.94-2.83,2.94,1.21,2.94,2.83Z"/>
    </g>
  </g>
</svg>