<?xml version="1.0" encoding="UTF-8"?>
<svg id="Layer_2" data-name="Layer 2" xmlns="http://www.w3.org/2000/svg" xmlns:xlink="http://www.w3.org/1999/xlink" viewBox="0 0 144 144">
  <defs>
    <style>
      .cls-1 {
        fill: none;
      }

      .cls-2 {
        fill: url(#linear-gradient);
      }
    </style>
    <linearGradient id="linear-gradient" x1="27" y1="72" x2="117" y2="72" gradientUnits="userSpaceOnUse">
      <stop offset="0" stop-color="#111"/>
      <stop offset="1" stop-color="#000"/>
    </linearGradient>
  </defs>
  <g id="form">
    <rect class="cls-1" width="144" height="144"/>
  </g>
  <g id="object">
    <path class="cls-2" d="m117,72c0,2.29-4.56,5.15-7.41,5.15-1.17,0-2.4-.25-3.42-.81h0c-.55-.3-1.31-.64-2.26-.87-.86-.22-1.62-.28-2.22-.29,2.97,2.32,4.16,5.99,3.04,8.96-1.46,3.95-6.22,4.6-6.55,4.63-5.36.65-9.51-4.51-11.04-6.41-.74-.91-1.34-1.82-1.82-2.68-.42-.76.41-1.63,1.18-1.2,1.52.86,3.51,1.57,5.66,1.19.67-.12,2.49-.43,2.93-1.62.47-1.27-.75-3.25-3.27-4.7h-18.51v18.47c1.44,2.51,3.42,3.73,4.7,3.27,1.19-.43,1.51-2.26,1.62-2.93.38-2.15-.33-4.14-1.19-5.66-.43-.76.43-1.6,1.2-1.18.86.49,1.77,1.08,2.68,1.82,1.91,1.53,7.06,5.67,6.41,11.04-.03.33-.68,5.09-4.63,6.55-2.97,1.11-6.64-.07-8.96-3.04.01.59.06,1.36.29,2.22.23.94.57,1.71.88,2.26h-.01c.55,1.03.81,2.26.81,3.42,0,2.85-2.86,7.41-5.15,7.41s-5.15-4.56-5.15-7.41c0-1.17.24-2.4.8-3.42h.01s0-.02.01-.03c.01-.01.01-.02.02-.04s.03-.04.04-.07c.01-.02.02-.04.03-.06.28-.49.57-1.13.77-1.93.24-.93.29-1.75.28-2.33-2.32,2.97-5.99,4.16-8.96,3.04-3.95-1.46-4.6-6.22-4.63-6.55-.65-5.36,4.51-9.51,6.41-11.04.91-.74,1.82-1.34,2.68-1.82.76-.42,1.63.41,1.2,1.18-.86,1.52-1.57,3.51-1.19,5.66.12.67.43,2.49,1.62,2.93,1.27.47,3.25-.75,4.7-3.27v-18.47h-18.42c-2.51,1.44-3.73,3.42-3.27,4.7.43,1.19,2.26,1.51,2.93,1.62,2.15.38,4.14-.33,5.66-1.19.76-.43,1.6.43,1.18,1.2-.49.86-1.08,1.77-1.82,2.68-1.53,1.91-5.67,7.06-11.04,6.41-.33-.03-5.09-.68-6.55-4.63-1.11-2.97.07-6.64,3.04-8.96-.59.01-1.36.06-2.22.29-.94.23-1.71.57-2.26.88h0c-1.03.54-2.26.8-3.42.8-2.85,0-7.41-2.86-7.41-5.15s4.56-5.15,7.41-5.15c1.17,0,2.4.24,3.42.8h0s.02.01.03.02c.01.01.02.01.04.02.02.01.04.03.07.04.02.01.04.02.06.03.49.28,1.13.57,1.93.77.93.24,1.75.29,2.33.28-2.97-2.32-4.16-5.99-3.04-8.96,1.46-3.95,6.22-4.6,6.55-4.63,5.36-.65,9.51,4.51,11.04,6.41.74.91,1.34,1.82,1.82,2.68.42.76-.41,1.63-1.18,1.2-1.52-.86-3.51-1.57-5.66-1.19-.67.12-2.49.43-2.93,1.62-.47,1.27.75,3.25,3.27,4.7h18.42v-18.47c-1.44-2.51-3.42-3.73-4.7-3.27-1.19.43-1.51,2.26-1.62,2.93-.38,2.15.33,4.14,1.19,5.66.43.76-.43,1.6-1.2,1.18-.86-.49-1.77-1.08-2.68-1.82-1.91-1.53-7.06-5.67-6.41-11.04.03-.33.68-5.09,4.63-6.55,2.97-1.11,6.64.07,8.96,3.04.01-.58-.03-1.4-.28-2.33-.2-.8-.5-1.44-.77-1.93-.01-.02-.02-.04-.03-.06-.01-.03-.03-.05-.04-.07s-.01-.03-.02-.04c-.01-.01-.01-.02-.01-.03h-.01c-.55-1.03-.8-2.26-.8-3.42,0-2.85,2.88-7.41,5.15-7.41s5.15,4.56,5.15,7.41c0,1.17-.25,2.4-.81,3.42h.01c-.31.55-.65,1.31-.88,2.26-.22.86-.28,1.62-.29,2.22,2.32-2.97,5.99-4.16,8.96-3.04,3.95,1.46,4.6,6.22,4.63,6.55.65,5.36-4.51,9.51-6.41,11.04-.91.74-1.82,1.34-2.68,1.82-.76.42-1.63-.41-1.2-1.18.86-1.52,1.57-3.51,1.19-5.66-.12-.67-.43-2.49-1.62-2.93-1.27-.47-3.25.75-4.7,3.27v18.47h18.51c2.51-1.44,3.73-3.42,3.27-4.7-.43-1.19-2.26-1.51-2.93-1.62-2.15-.38-4.14.33-5.66,1.19-.76.43-1.6-.43-1.18-1.2.49-.86,1.08-1.77,1.82-2.68,1.53-1.91,5.67-7.06,11.04-6.41.33.03,5.09.68,6.55,4.63,1.11,2.97-.07,6.64-3.04,8.96.58.01,1.4-.03,2.33-.28.8-.2,1.44-.5,1.93-.77.02-.01.04-.02.06-.03.03-.01.05-.03.07-.04.02-.01.03-.01.04-.02s.02-.01.03-.01h0c1.03-.56,2.26-.81,3.42-.81,2.85,0,7.41,2.88,7.41,5.15Z"/>
  </g>
</svg>