<?xml version="1.0" encoding="UTF-8"?>
<svg id="Layer_2" data-name="Layer 2" xmlns="http://www.w3.org/2000/svg" viewBox="0 0 44 44">
  <defs>
    <style>
      .cls-1 {
        fill: #000;
      }

      .cls-1, .cls-2 {
        stroke-width: 0px;
      }

      .cls-2 {
        fill: none;
      }
    </style>
  </defs>
  <g id="completed">
    <g>
      <rect class="cls-2" width="44" height="44"/>
      <path class="cls-1" d="M33.38,34.9c-2.17,2.17-6.51.63-7.5-.36L9.46,18.12c-.99-.99-2.53-5.33-.36-7.5,2.04-2.04,3.73-3.1,4.73-2.41l4.27,4.27c1.16,1.16,1.16,3.01,0,4.17l-.14.14c-.99.99.47,3.16,3.28,5.97,2.8,2.8,4.97,4.26,5.96,3.27l.14-.14c1.16-1.16,3.01-1.16,4.17,0l4.28,4.28c.69,1-.37,2.68-2.41,4.73Z"/>
    </g>
  </g>
</svg>