<?xml version="1.0" encoding="UTF-8"?>
<svg id="Layer_2" data-name="Layer 2" xmlns="http://www.w3.org/2000/svg" viewBox="0 0 44 44">
  <defs>
    <style>
      .cls-1 {
        fill: #000;
      }

      .cls-1, .cls-2 {
        stroke-width: 0px;
      }

      .cls-2 {
        fill: none;
      }
    </style>
  </defs>
  <g id="completed">
    <g>
      <rect class="cls-2" width="44" height="44"/>
      <path class="cls-1" d="M27.39,11.23h-10.77c-1.69,0-3.04,1.36-3.04,3.04v15.46c0,1.69,1.36,3.04,3.04,3.04h10.77c1.69,0,3.04-1.36,3.04-3.04v-15.46c0-1.69-1.36-3.04-3.04-3.04ZM26.17,27.65h-4.33c-.63,0-.96-.48-.96-1.08s.33-1.08.96-1.08h4.33c.65,0,.96.48.96,1.08s-.32,1.08-.96,1.08ZM26.17,24.04h-8.34c-.63,0-.96-.48-.96-1.08s.33-1.08.96-1.08h8.34c.65,0,.96.48.96,1.08s-.32,1.08-.96,1.08ZM27.13,19.36c0,.6-.32,1.08-.96,1.08h-8.34c-.63,0-.96-.48-.96-1.08h0c0-.6.33-1.08.96-1.08h8.34c.65,0,.96.48.96,1.06h0ZM26.17,16.83h-8.34c-.63,0-.96-.48-.96-1.08s.33-1.08.96-1.08h8.34c.65,0,.96.48.96,1.08s-.32,1.08-.96,1.08Z"/>
    </g>
  </g>
</svg>