<?xml version="1.0" encoding="UTF-8"?>
<svg id="Layer_2" data-name="Layer 2" xmlns="http://www.w3.org/2000/svg" viewBox="0 0 44 44">
  <defs>
    <style>
      .cls-1 {
        fill: #000;
      }

      .cls-1, .cls-2 {
        stroke-width: 0px;
      }

      .cls-2 {
        fill: none;
      }
    </style>
  </defs>
  <g id="completed">
    <g>
      <rect class="cls-2" width="44" height="44"/>
      <g>
        <path class="cls-1" d="M31.15,22.26c0,5.1-4.14,9.24-9.24,9.24s-9.24-4.14-9.24-9.24,4.14-9.24,9.24-9.24c.51,0,1.01.05,1.5.12l1,1.62-1.81,1.12c-.22-.02-.46-.04-.68-.04-3.53,0-6.42,2.88-6.42,6.42s2.88,6.42,6.42,6.42,6.42-2.88,6.42-6.42c0-.74-.13-1.46-.38-2.13l2.33-1.8c.55,1.19.87,2.53.87,3.93Z"/>
        <polygon class="cls-1" points="27.8 15.56 25.52 16.97 25.27 17.12 22.45 18.87 21.14 16.77 22.59 15.88 24.4 14.76 23.4 13.13 22.51 11.69 24.61 10.39 27.31 14.76 27.64 15.29 27.8 15.56"/>
      </g>
    </g>
  </g>
</svg>