<?xml version="1.0" encoding="UTF-8"?>
<svg id="Layer_2" data-name="Layer 2" xmlns="http://www.w3.org/2000/svg" xmlns:xlink="http://www.w3.org/1999/xlink" viewBox="0 0 144 144">
  <defs>
    <style>
      .cls-1 {
        fill: none;
      }

      .cls-2 {
        fill: url(#linear-gradient);
      }
    </style>
    <linearGradient id="linear-gradient" x1="38.47" y1="72.02" x2="105.53" y2="72.02" gradientUnits="userSpaceOnUse">
      <stop offset="0" stop-color="#111"/>
      <stop offset="1" stop-color="#000"/>
    </linearGradient>
  </defs>
  <g id="form">
    <rect class="cls-1" width="144" height="144"/>
  </g>
  <g id="object">
    <path class="cls-2" d="m103.55,51.13c-.56-.31-1.2-.49-1.88-.49-2.14,0-3.87,1.73-3.87,3.86,0,1.35.68,2.53,1.72,3.22l-14.89,24.33,2.48-31.49c2.03-.1,3.65-1.79,3.65-3.85,0-1.86-1.31-3.41-3.05-3.78h-.01c-.26-.06-.53-.09-.8-.09-2.14,0-3.87,1.73-3.87,3.87,0,1.59.97,2.96,2.35,3.55l-9.2,29-3.36-31.08c1.75-.37,3.05-1.92,3.05-3.77,0-2.14-1.73-3.87-3.87-3.87s-3.86,1.73-3.86,3.87c0,1.85,1.3,3.4,3.04,3.77l-3.33,30.86-9.14-28.82c1.33-.61,2.26-1.95,2.26-3.51,0-2.14-1.73-3.87-3.86-3.87-.25,0-.49.02-.72.07-1.8.33-3.15,1.91-3.15,3.8,0,2.09,1.67,3.79,3.75,3.85l2.44,31.07-14.87-23.97c.99-.69,1.64-1.85,1.64-3.16,0-2.13-1.73-3.86-3.86-3.86-.67,0-1.29.18-1.83.48h-.01c-1.2.66-2.03,1.92-2.03,3.38,0,2.14,1.73,3.87,3.87,3.87.25,0,.5-.02.74-.07l13.51,37.58c.93,4.34,5.42,7.62,15.56,7.62s14.49-3.22,15.52-7.5v-.04s13.34-37.65,13.34-37.65c.21.04.43.06.66.06,2.13,0,3.86-1.73,3.86-3.87,0-1.45-.8-2.71-1.98-3.37Zm-31.55,47.88c-9.39,0-10.85-2.85-10.85-5.65s3.38-4.5,10.85-4.5,10.85,1.69,10.85,4.5-1.79,5.65-10.85,5.65Z"/>
  </g>
</svg>