<svg fill="#000000" xmlns="http://www.w3.org/2000/svg"  viewBox="0 0 24 24" width="48px" height="48px"><path d="M 10 0.98046875 C 5.664 0.98046875 2 4.4353906 2 8.5253906 L 2 12.023438 C 2 15.409437 3.0230469 17.614281 5.1230469 18.738281 L 5.1230469 21.039062 C 5.1230469 21.820063 5.5876875 22.520219 6.3046875 22.824219 C 6.5486875 22.927219 6.8055469 22.978516 7.0605469 22.978516 C 7.5545469 22.978516 8.0401562 22.788688 8.4101562 22.429688 L 11.371094 19.570312 L 14.439453 19.570312 C 18.608453 19.570313 22 16.184437 22 12.023438 L 22 8.5253906 C 22 4.3643906 18.607453 0.98046875 14.439453 0.98046875 L 10 0.98046875 z M 10 2.9804688 L 14.441406 2.9804688 C 17.507406 2.9804688 20.001953 5.4673906 20.001953 8.5253906 L 20.001953 12.023438 C 20.001953 15.082437 17.506406 17.570312 14.441406 17.570312 L 10.96875 17.570312 C 10.70975 17.570312 10.460437 17.670562 10.273438 17.851562 L 7.1230469 20.894531 L 7.1230469 18.101562 C 7.1230469 17.692563 6.8721875 17.324828 6.4921875 17.173828 C 4.7911875 16.495828 4 14.859438 4 12.023438 L 4 8.5253906 C 4 5.5713906 6.804 2.9804688 10 2.9804688 z M 13 3.9804688 C 12.724 3.9804688 12.5 4.2044688 12.5 4.4804688 C 12.5 4.7564687 12.724 4.9804688 13 4.9804688 C 15.947 4.9804688 18 7.6154687 18 9.9804688 C 18 10.256469 18.224 10.480469 18.5 10.480469 C 18.776 10.480469 19 10.256469 19 9.9804688 C 19 7.1424688 16.536 3.9804688 13 3.9804688 z M 8.0019531 4.9902344 C 7.7637031 4.9543594 7.5116875 5.0109219 7.3046875 5.1699219 L 6.7167969 5.6230469 C 6.0227969 6.1560469 5.8013594 7.0969531 6.1933594 7.8769531 C 6.9313594 9.3439531 8.1679375 11.604406 9.2109375 12.566406 C 10.492938 13.750406 12.507172 15.15375 14.201172 15.84375 C 14.942172 16.14575 15.790547 15.933172 16.310547 15.326172 C 16.495547 15.110172 16.668359 14.890406 16.818359 14.691406 C 17.125359 14.283406 17.036094 13.70525 16.621094 13.40625 L 14.75 12.060547 C 14.348 11.771547 13.786375 11.851188 13.484375 12.242188 L 13.169922 12.589844 C 12.961922 12.819844 12.64875 12.940906 12.34375 12.878906 C 11.86775 12.782906 11.113187 12.472063 10.242188 11.539062 C 9.5231875 10.771063 9.1196562 9.9537656 8.9726562 9.3847656 C 8.8846563 9.0447656 9.0063438 8.6898438 9.2773438 8.4648438 L 9.5917969 8.203125 C 9.9587969 7.899125 10.030859 7.3665156 9.7558594 6.9785156 L 8.6152344 5.3671875 C 8.4652344 5.1546875 8.2402031 5.0261094 8.0019531 4.9902344 z M 13 5.9804688 C 12.724 5.9804688 12.5 6.2044688 12.5 6.4804688 C 12.5 6.7564687 12.724 6.9804688 13 6.9804688 C 14.514 6.9804688 16 8.4664688 16 9.9804688 C 16 10.256469 16.224 10.480469 16.5 10.480469 C 16.776 10.480469 17 10.256469 17 9.9804688 C 17 7.9244688 15.056 5.9804688 13 5.9804688 z M 13 7.9804688 C 12.724 7.9804688 12.5 8.2044688 12.5 8.4804688 C 12.5 8.7564687 12.724 8.9804688 13 8.9804688 C 13.645 8.9804688 14 9.3354688 14 9.9804688 C 14 10.256469 14.224 10.480469 14.5 10.480469 C 14.776 10.480469 15 10.256469 15 9.9804688 C 15 8.7844687 14.196 7.9804688 13 7.9804688 z"/></svg>