<?xml version="1.0" encoding="UTF-8"?>
<svg id="Layer_2" data-name="Layer 2" xmlns="http://www.w3.org/2000/svg" viewBox="0 0 44 44">
  <defs>
    <style>
      .cls-1 {
        fill: #000;
      }

      .cls-1, .cls-2 {
        stroke-width: 0px;
      }

      .cls-2 {
        fill: none;
      }
    </style>
  </defs>
  <g id="completed">
    <g>
      <rect class="cls-2" width="44" height="44"/>
      <g>
        <path class="cls-1" d="M23.83,21c.46.33.36,1.03-.17,1.22l-2.56.91c-.52.18-1.02-.26-.92-.79l.51-2.41c.1-.49.68-.72,1.09-.42l2.06,1.5Z"/>
        <path class="cls-1" d="M32.83,21.39c0-6.03-4.89-9.76-10.91-9.76s-10.91,3.73-10.91,9.76,4.88,9.76,10.91,9.76c13.3,0,10.91,6.32,10.91-9.76ZM22,27.17c-4.82,0-6.69-1.93-6.69-5.63s1.86-5.62,6.69-5.62,6.69,1.93,6.69,5.62-1.86,5.63-6.69,5.63Z"/>
        <path class="cls-1" d="M23.65,22.22l-2.56.91c-.52.18-1.02-.26-.92-.79l.51-2.41c.1-.49.68-.72,1.09-.42l2.06,1.5c.46.33.36,1.03-.17,1.22Z"/>
      </g>
    </g>
  </g>
</svg>