<?xml version="1.0" encoding="UTF-8"?>
<svg id="Layer_2" data-name="Layer 2" xmlns="http://www.w3.org/2000/svg" viewBox="0 0 143.65 143.65">
  <defs>
    <style>
      .cls-1 {
        fill: #fff;
      }

      .cls-2 {
        fill: #231f20;
      }
    </style>
  </defs>
  <g id="object">
    <g>
      <rect class="cls-1" x="0" y="0" width="143.65" height="143.65"/>
      <path class="cls-2" d="m138.65,5v133.65H5V5h133.65m5-5H0v143.65h143.65V0h0Z"/>
    </g>
    <g>
      <path class="cls-1" d="m0,143.65c15.41-23.35,30.83-46.7,46.24-70.04,32.47,23.35,64.94,46.7,97.4,70.04H0Z"/>
      <path class="cls-2" d="m47.55,80.7l80.58,57.95H9.29l18-27.27,20.26-30.68m-1.31-7.1C30.83,96.95,15.41,120.3,0,143.65h143.65c-32.47-23.35-64.94-46.7-97.4-70.04h0Z"/>
    </g>
    <g>
      <path class="cls-1" d="m0,143.65c31.3-17.28,62.6-34.55,93.9-51.83,16.58,17.28,33.16,34.55,49.74,51.83H0Z"/>
      <path class="cls-2" d="m92.96,98.05l38.96,40.6H19.41l29.96-16.54,43.59-24.06m.95-6.23C62.6,109.1,31.3,126.37,0,143.65h143.65c-16.58-17.28-33.16-34.55-49.74-51.83h0Z"/>
    </g>
    <g>
      <circle class="cls-1" cx="88.06" cy="49.38" r="15.26"/>
      <path class="cls-2" d="m88.06,39.12c5.66,0,10.26,4.6,10.26,10.26s-4.6,10.26-10.26,10.26-10.26-4.6-10.26-10.26,4.6-10.26,10.26-10.26m0-5c-8.43,0-15.26,6.83-15.26,15.26s6.83,15.26,15.26,15.26,15.26-6.83,15.26-15.26-6.83-15.26-15.26-15.26h0Z"/>
    </g>
  </g>
</svg>